<mxfile host="Electron" modified="2024-05-16T00:14:28.549Z" agent="Mozilla/5.0 (Windows NT 10.0; Win64; x64) AppleWebKit/537.36 (KHTML, like Gecko) draw.io/24.4.0 Chrome/120.0.6099.109 Electron/28.1.0 Safari/537.36" etag="iX-yXuKtN7uHdHGoIPf7" version="24.4.0" type="device">
  <diagram name="Page-1" id="qGaWxObSz0XaX8Buwcu3">
    <mxGraphModel dx="744" dy="723" grid="1" gridSize="10" guides="1" tooltips="1" connect="1" arrows="1" fold="1" page="1" pageScale="1" pageWidth="1700" pageHeight="1100" math="0" shadow="0">
      <root>
        <mxCell id="0" />
        <mxCell id="1" parent="0" />
        <mxCell id="NmlaGQNUU1KCurAq4Xw2-1" value="" style="shape=image;verticalLabelPosition=bottom;labelBackgroundColor=default;verticalAlign=top;aspect=fixed;imageAspect=0;image=data:image/png,iVBORw0KGgoAAAANSUhEUgAABkAAAASwCAYAAACjAYaXAAAABmJLR0QA/wD/AP+gvaeTAAAgAElEQVR4nOzZwQ1BARQAQZSgBFeJWpz8MtxpQhNOivlVqIMmJC9ZMxXsfbeH0/mzAfhDx+tjOgFgxOuyn04AGPG836YTAEasy3s6AWDEbjoAAAAAAADg1wwQAAAAAAAgxwABAAAAAAByDBAAAAAAACDHAAEAAAAAAHIMEAAAAAAAIMcAAQAAAAAAcgwQAAAAAAAgxwABAAAAAAByDBAAAAAAACDHAAEAAAAAAHIMEAAAAAAAIMcAAQAAAAAAcgwQAAAAAAAgxwABAAAAAAByDBAAAAAAACDHAAEAAAAAAHIMEAAAAAAAIMcAAQAAAAAAcgwQAAAAAAAgxwABAAAAAAByDBAAAAAAACDHAAEAAAAAAHIMEAAAAAAAIMcAAQAAAAAAcgwQAAAAAAAgxwABAAAAAAByDBAAAAAAACDHAAEAAAAAAHIMEAAAAAAAIMcAAQAAAAAAcgwQAAAAAAAgxwABAAAAAAByDBAAAAAAACDHAAEAAAAAAHIMEAAAAAAAIMcAAQAAAAAAcgwQAAAAAAAgxwABAAAAAAByDBAAAAAAACDHAAEAAAAAAHIMEAAAAAAAIMcAAQAAAAAAcgwQAAAAAAAgxwABAAAAAAByDBAAAAAAACDHAAEAAAAAAHIMEAAAAAAAIMcAAQAAAAAAcgwQAAAAAAAgxwABAAAAAAByDBAAAAAAACDHAAEAAAAAAHIMEAAAAAAAIMcAAQAAAAAAcgwQAAAAAAAgxwABAAAAAAByDBAAAAAAACDHAAEAAAAAAHIMEAAAAAAAIMcAAQAAAAAAcgwQAAAAAAAgxwABAAAAAAByDBAAAAAAACDHAAEAAAAAAHIMEAAAAAAAIMcAAQAAAAAAcgwQAAAAAAAgxwABAAAAAAByDBAAAAAAACDHAAEAAAAAAHIMEAAAAAAAIMcAAQAAAAAAcgwQAAAAAAAgxwABAAAAAAByDBAAAAAAACDHAAEAAAAAAHIMEAAAAAAAIMcAAQAAAAAAcgwQAAAAAAAgxwABAAAAAAByDBAAAAAAACDHAAEAAAAAAHIMEAAAAAAAIMcAAQAAAAAAcgwQAAAAAAAgxwABAAAAAAByDBAAAAAAACDHAAEAAAAAAHIMEAAAAAAAIMcAAQAAAAAAcgwQAAAAAAAgxwABAAAAAAByDBAAAAAAACDHAAEAAAAAAHIMEAAAAAAAIMcAAQAAAAAAcgwQAAAAAAAgxwABAAAAAAByDBAAAAAAACDHAAEAAAAAAHIMEAAAAAAAIMcAAQAAAAAAcgwQAAAAAAAgxwABAAAAAAByDBAAAAAAACDHAAEAAAAAAHIMEAAAAAAAIMcAAQAAAAAAcgwQAAAAAAAgxwABAAAAAAByDBAAAAAAACDHAAEAAAAAAHIMEAAAAAAAIMcAAQAAAAAAcgwQAAAAAAAgxwABAAAAAAByDBAAAAAAACDHAAEAAAAAAHIMEAAAAAAAIMcAAQAAAAAAcgwQAAAAAAAgxwABAAAAAAByDBAAAAAAACDHAAEAAAAAAHIMEAAAAAAAIMcAAQAAAAAAcgwQAAAAAAAgxwABAAAAAAByDBAAAAAAACDHAAEAAAAAAHIMEAAAAAAAIMcAAQAAAAAAcgwQAAAAAAAgxwABAAAAAAByDBAAAAAAACDHAAEAAAAAAHIMEAAAAAAAIMcAAQAAAAAAcgwQAAAAAAAgxwABAAAAAAByDBAAAAAAACDHAAEAAAAAAHIMEAAAAAAAIMcAAQAAAAAAcgwQAAAAAAAgxwABAAAAAAByDBAAAAAAACDHAAEAAAAAAHIMEAAAAAAAIMcAAQAAAAAAcgwQAAAAAAAgxwABAAAAAAByDBAAAAAAACDHAAEAAAAAAHIMEAAAAAAAIMcAAQAAAAAAcgwQAAAAAAAgxwABAAAAAAByDBAAAAAAACDHAAEAAAAAAHIMEAAAAAAAIMcAAQAAAAAAcgwQAAAAAAAgxwABAAAAAAByDBAAAAAAACDHAAEAAAAAAHIMEAAAAAAAIMcAAQAAAAAAcgwQAAAAAAAgxwABAAAAAAByDBAAAAAAACDHAAEAAAAAAHIMEAAAAAAAIMcAAQAAAAAAcgwQAAAAAAAgxwABAAAAAAByDBAAAAAAACDHAAEAAAAAAHIMEAAAAAAAIMcAAQAAAAAAcgwQAAAAAAAgxwABAAAAAAByDBAAAAAAACDHAAEAAAAAAHIMEAAAAAAAIMcAAQAAAAAAcgwQAAAAAAAgxwABAAAAAAByDBAAAAAAACDHAAEAAAAAAHIMEAAAAAAAIMcAAQAAAAAAcgwQAAAAAAAgxwABAAAAAAByDBAAAAAAACDHAAEAAAAAAHIMEAAAAAAAIMcAAQAAAAAAcgwQAAAAAAAgxwABAAAAAAByDBAAAAAAACDHAAEAAAAAAHIMEAAAAAAAIMcAAQAAAAAAcgwQAAAAAAAgxwABAAAAAAByDBAAAAAAACDHAAEAAAAAAHIMEAAAAAAAIMcAAQAAAAAAcgwQAAAAAAAgxwABAAAAAAByDBAAAAAAACDHAAEAAAAAAHIMEAAAAAAAIMcAAQAAAAAAcgwQAAAAAAAgxwABAAAAAAByDBAAAAAAACDHAAEAAAAAAHIMEAAAAAAAIMcAAQAAAAAAcgwQAAAAAAAgxwABAAAAAAByDBAAAAAAACDHAAEAAAAAAHIMEAAAAAAAIMcAAQAAAAAAcgwQAAAAAAAgxwABAAAAAAByDBAAAAAAACDHAAEAAAAAAHIMEAAAAAAAIMcAAQAAAAAAcgwQAAAAAAAgxwABAAAAAAByDBAAAAAAACDHAAEAAAAAAHIMEAAAAAAAIMcAAQAAAAAAcgwQAAAAAAAgxwABAAAAAAByDBAAAAAAACDHAAEAAAAAAHIMEAAAAAAAIMcAAQAAAAAAcgwQAAAAAAAgxwABAAAAAAByDBAAAAAAACDHAAEAAAAAAHIMEAAAAAAAIMcAAQAAAAAAcgwQAAAAAAAgxwABAAAAAAByDBAAAAAAACDHAAEAAAAAAHIMEAAAAAAAIMcAAQAAAAAAcgwQAAAAAAAgxwABAAAAAAByDBAAAAAAACDHAAEAAAAAAHIMEAAAAAAAIMcAAQAAAAAAcgwQAAAAAAAgxwABAAAAAAByDBAAAAAAACDHAAEAAAAAAHIMEAAAAAAAIMcAAQAAAAAAcgwQAAAAAAAgxwABAAAAAAByDBAAAAAAACDHAAEAAAAAAHIMEAAAAAAAIMcAAQAAAAAAcgwQAAAAAAAgxwABAAAAAAByDBAAAAAAACDHAAEAAAAAAHIMEAAAAAAAIMcAAQAAAAAAcgwQAAAAAAAgxwABAAAAAAByDBAAAAAAACDHAAEAAAAAAHIMEAAAAAAAIMcAAQAAAAAAcgwQAAAAAAAgxwABAAAAAAByDBAAAAAAACDHAAEAAAAAAHIMEAAAAAAAIMcAAQAAAAAAcgwQAAAAAAAgxwABAAAAAAByDBAAAAAAACDHAAEAAAAAAHIMEAAAAAAAIMcAAQAAAAAAcgwQAAAAAAAgxwABAAAAAAByDBAAAAAAACDHAAEAAAAAAHIMEAAAAAAAIMcAAQAAAAAAcgwQAAAAAAAgxwABAAAAAAByDBAAAAAAACDHAAEAAAAAAHIMEAAAAAAAIMcAAQAAAAAAcgwQAAAAAAAgxwABAAAAAAByDBAAAAAAACDHAAEAAAAAAHIMEAAAAAAAIMcAAQAAAAAAcgwQAAAAAAAgxwABAAAAAAByDBAAAAAAACDHAAEAAAAAAHIMEAAAAAAAIMcAAQAAAAAAcgwQAAAAAAAgxwABAAAAAAByDBAAAAAAACDHAAEAAAAAAHIMEAAAAAAAIMcAAQAAAAAAcgwQAAAAAAAgxwABAAAAAAByDBAAAAAAACDHAAEAAAAAAHIMEAAAAAAAIMcAAQAAAAAAcgwQAAAAAAAgxwABAAAAAAByDBAAAAAAACDHAAEAAAAAAHIMEAAAAAAAIMcAAQAAAAAAcgwQAAAAAAAgxwABAAAAAAByDBAAAAAAACDHAAEAAAAAAHIMEAAAAAAAIMcAAQAAAAAAcgwQAAAAAAAgxwABAAAAAAByDBAAAAAAACDHAAEAAAAAAHIMEAAAAAAAIMcAAQAAAAAAcgwQAAAAAAAgxwABAAAAAAByDBAAAAAAACDHAAEAAAAAAHIMEAAAAAAAIMcAAQAAAAAAcgwQAAAAAAAgxwABAAAAAAByDBAAAAAAACDHAAEAAAAAAHIMEAAAAAAAIMcAAQAAAAAAcgwQAAAAAAAgxwABAAAAAAByDBAAAAAAACDHAAEAAAAAAHIMEAAAAAAAIMcAAQAAAAAAcgwQAAAAAAAgxwABAAAAAAByDBAAAAAAACDHAAEAAAAAAHIMEAAAAAAAIMcAAQAAAAAAcgwQAAAAAAAgxwABAAAAAAByDBAAAAAAACDHAAEAAAAAAHIMEAAAAAAAIMcAAQAAAAAAcgwQAAAAAAAgxwABAAAAAAByDBAAAAAAACDHAAEAAAAAAHIMEAAAAAAAIMcAAQAAAAAAcgwQAAAAAAAgxwABAAAAAAByDBAAAAAAACDHAAEAAAAAAHIMEAAAAAAAIMcAAQAAAAAAcgwQAAAAAAAgxwABAAAAAAByDBAAAAAAACDHAAEAAAAAAHIMEAAAAAAAIMcAAQAAAAAAcgwQAAAAAAAgxwABAAAAAAByDBAAAAAAACDHAAEAAAAAAHIMEAAAAAAAIMcAAQAAAAAAcgwQAAAAAAAgxwABAAAAAAByDBAAAAAAACDHAAEAAAAAAHIMEAAAAAAAIMcAAQAAAAAAcgwQAAAAAAAgxwABAAAAAAByDBAAAAAAACDHAAEAAAAAAHIMEAAAAAAAIMcAAQAAAAAAcgwQAAAAAAAgxwABAAAAAAByDBAAAAAAACDHAAEAAAAAAHIMEAAAAAAAIMcAAQAAAAAAcgwQAAAAAAAgxwABAAAAAAByDBAAAAAAACDHAAEAAAAAAHIMEAAAAAAAIMcAAQAAAAAAcgwQAAAAAAAgxwABAAAAAAByDBAAAAAAACDHAAEAAAAAAHIMEAAAAAAAIMcAAQAAAAAAcgwQAAAAAAAgxwABAAAAAAByDBAAAAAAACDHAAEAAAAAAHIMEAAAAAAAIMcAAQAAAAAAcgwQAAAAAAAgxwABAAAAAAByDBAAAAAAACDHAAEAAAAAAHIMEAAAAAAAIMcAAQAAAAAAcgwQAAAAAAAgxwABAAAAAAByDBAAAAAAACDHAAEAAAAAAHIMEAAAAAAAIMcAAQAAAAAAcgwQAAAAAAAgxwABAAAAAAByDBAAAAAAACDHAAEAAAAAAHIMEAAAAAAAIMcAAQAAAAAAcgwQAAAAAAAgxwABAAAAAAByDBAAAAAAACDHAAEAAAAAAHIMEAAAAAAAIMcAAQAAAAAAcgwQAAAAAAAgxwABAAAAAAByDBAAAAAAACDHAAEAAAAAAHIMEAAAAAAAIMcAAQAAAAAAcgwQAAAAAAAgxwABAAAAAAByDBAAAAAAACDHAAEAAAAAAHIMEAAAAAAAIMcAAQAAAAAAcgwQAAAAAAAgxwABAAAAAAByDBAAAAAAACDHAAEAAAAAAHIMEAAAAAAAIMcAAQAAAAAAcgwQAAAAAAAgxwABAAAAAAByDBAAAAAAACDHAAEAAAAAAHIMEAAAAAAAIMcAAQAAAAAAcgwQAAAAAAAgxwABAAAAAAByDBAAAAAAACDHAAEAAAAAAHIMEAAAAAAAIMcAAQAAAAAAcgwQAAAAAAAgxwABAAAAAAByDBAAAAAAACDHAAEAAAAAAHIMEAAAAAAAIMcAAQAAAAAAcgwQAAAAAAAgxwABAAAAAAByDBAAAAAAACDHAAEAAAAAAHIMEAAAAAAAIMcAAQAAAAAAcgwQAAAAAAAgxwABAAAAAAByDBAAAAAAACDHAAEAAAAAAHIMEAAAAAAAIMcAAQAAAAAAcgwQAAAAAAAgxwABAAAAAAByDBAAAAAAACDHAAEAAAAAAHIMEAAAAAAAIMcAAQAAAAAAcgwQAAAAAAAgxwABAAAAAAByDBAAAAAAACDHAAEAAAAAAHIMEAAAAAAAIMcAAQAAAAAAcgwQAAAAAAAgxwABAAAAAAByDBAAAAAAACDHAAEAAAAAAHIMEAAAAAAAIMcAAQAAAAAAcgwQAAAAAAAgxwABAAAAAAByDBAAAAAAACDHAAEAAAAAAHIMEAAAAAAAIMcAAQAAAAAAcgwQAAAAAAAgxwABAAAAAAByDBAAAAAAACDHAAEAAAAAAHIMEAAAAAAAIMcAAQAAAAAAcgwQAAAAAAAgxwABAAAAAAByDBAAAAAAACDHAAEAAAAAAHIMEAAAAAAAIMcAAQAAAAAAcgwQAAAAAAAgxwABAAAAAAByDBAAAAAAACDHAAEAAAAAAHIMEAAAAAAAIMcAAQAAAAAAcgwQAAAAAAAgxwABAAAAAAByDBAAAAAAACDHAAEAAAAAAHIMEAAAAAAAIMcAAQAAAAAAcgwQAAAAAAAgxwABAAAAAAByDBAAAAAAACDHAAEAAAAAAHIMEAAAAAAAIMcAAQAAAAAAcgwQAAAAAAAgxwABAAAAAAByDBAAAAAAACDHAAEAAAAAAHIMEAAAAAAAIMcAAQAAAAAAcgwQAAAAAAAgxwABAAAAAAByDBAAAAAAACDHAAEAAAAAAHIMEAAAAAAAIMcAAQAAAAAAcgwQAAAAAAAgxwABAAAAAAByDBAAAAAAACDHAAEAAAAAAHIMEAAAAAAAIMcAAQAAAAAAcgwQAAAAAAAgxwABAAAAAAByDBAAAAAAACDHAAEAAAAAAHIMEAAAAAAAIMcAAQAAAAAAcgwQAAAAAAAgxwABAAAAAAByDBAAAAAAACDHAAEAAAAAAHIMEAAAAAAAIMcAAQAAAAAAcgwQAAAAAAAgxwABAAAAAAByDBAAAAAAACDHAAEAAAAAAHIMEAAAAAAAIMcAAQAAAAAAcgwQAAAAAAAgxwABAAAAAAByDBAAAAAAACDHAAEAAAAAAHIMEAAAAAAAIMcAAQAAAAAAcgwQAAAAAAAgxwABAAAAAAByDBAAAAAAACDHAAEAAAAAAHIMEAAAAAAAIMcAAQAAAAAAcgwQAAAAAAAgxwABAAAAAAByDBAAAAAAACDHAAEAAAAAAHIMEAAAAAAAIMcAAQAAAAAAcgwQAAAAAAAgxwABAAAAAAByDBAAAAAAACDHAAEAAAAAAHIMEAAAAAAAIMcAAQAAAAAAcgwQAAAAAAAgxwABAAAAAAByDBAAAAAAACDHAAEAAAAAAHIMEAAAAAAAIMcAAQAAAAAAcgwQAAAAAAAgxwABAAAAAAByDBAAAAAAACDHAAEAAAAAAHIMEAAAAAAAIMcAAQAAAAAAcgwQAAAAAAAgxwABAAAAAAByDBAAAAAAACDHAAEAAAAAAHIMEAAAAAAAIMcAAQAAAAAAcgwQAAAAAAAgxwABAAAAAAByDBAAAAAAACDHAAEAAAAAAHIMEACAL3t3Hh13VfcP/DNZm7Rpk3SnLS2ltAWEFopg2UR2WUQEQUBQQEAQER/1J/rI464oDwgoi8uDIIqICygIgrLIvhWkG3Tf6L6nadpsM78/qqFD2pQ2M0n77et1Dufk3u+9dz5zDmeayfv7vRcAAABIHAEIAAAAAACQOAIQAAAAAAAgcQQgAAAAAABA4ghAAAAAAACAxBGAAAAAAAAAiSMAAQAAAAAAEkcAAgAAAAAAJI4ABAAAAAAASBwBCAAAAAAAkDgCEAAAAAAAIHEEIAAAAAAAQOIIQAAAAAAAgMQRgAAAAAAAAIkjAAEAAAAAABJHAAIAAAAAACSOAAQAAAAAAEgcAQgAAAAAAJA4AhAAAAAAACBxBCAAAAAAAEDiCEAAAAAAAIDEEYAAAAAAAACJIwABAAAAAAASRwACAAAAAAAkjgAEAAAAAABIHAEIAAAAAACQOAIQAAAAAAAgcQQgAAAAAABA4ghAAAAAAACAxBGAAAAAAAAAiSMAAQAAAAAAEkcAAgAAAAAAJI4ABAAAAAAASBwBCAAAAAAAkDgCEAAAAAAAIHEEIAAAAAAAQOIIQAAAAAAAgMQRgAAAAAAAAIkjAAEAAAAAABJHAAIAAAAAACSOAAQAAAAAAEgcAQgAAAAAAJA4AhAAAAAAACBxBCAAAAAAAEDiCEAAAAAAAIDEEYAAAAAAAACJIwABAAAAAAASRwACAAAAAAAkjgAEAAAAAABIHAEIAAAAAACQOAIQAAAAAAAgcQQgAAAAAABA4ghAAAAAAACAxBGAAAAAAAAAiSMAAQAAAAAAEkcAAgAAAAAAJI4ABAAAAAAASBwBCAAAAAAAkDgCEAAAAAAAIHEEIAAAAAAAQOIIQAAAAAAAgMQRgAAAAAAAAIkjAAEAAAAAABJHAAIAAAAAACSOAAQAAAAAAEgcAQgAAAAAAJA4AhAAAAAAACBxBCAAAAAAAEDiCEAAAAAAAIDEEYAAAAAAAACJIwABAAAAAAASRwACAAAAAAAkjgAEAAAAAABIHAEIAAAAAACQOAIQAAAAAAAgcQQgAAAAAABA4ghAAAAAAACAxBGAAAAAAAAAiSMAAQAAAAAAEkcAAgAAAAAAJI4ABAAAAAAASBwBCAAAAAAAkDgCEAAAAAAAIHEEIAAAAAAAQOIIQAAAAAAAgMQRgAAAAAAAAIkjAAEAAAAAABJHAAIAAAAAACSOAAQAAAAAAEgcAQgAAAAAAJA4AhAAAAAAACBxBCAAAAAAAEDiCEAAAAAAAIDEEYAAAAAAAACJIwABAAAAAAASRwACAAAAAAAkjgAEAAAAAABIHAEIAAAAAACQOAIQAAAAAAAgcQQgAAAAAABA4ghAAAAAAACAxBGAAAAAAAAAiSMAAQAAAAAAEkcAAgAAAAAAJI4ABAAAAAAASBwBCAAAAAAAkDgCEAAAAAAAIHEEIAAAAAAAQOIIQAAAAAAAgMQRgAAAAAAAAIkjAAEAAAAAABJHAAIAAAAAACSOAAQAAAAAAEgcAQgAAAAAAJA4AhAAAAAAACBxBCAAAAAAAEDiCEAAAAAAAIDEEYAAAAAAAACJIwABAAAAAAASRwACAAAAAAAkjgAEAAAAAABIHAEIAAAAAACQOAIQAAAAAAAgcQQgAAAAAABA4ghAAAAAAACAxBGAAAAAAAAAiSMAAQAAAAAAEkcAAgAAAAAAJI4ABAAAAAAASBwBCAAAAAAAkDgCEAAAAAAAIHEEIAAAAAAAQOIIQAAAAAAAgMQRgAAAAAAAAIkjAAEAAAAAABJHAAIAAAAAACSOAAQAAAAAAEgcAQgAAAAAAJA4AhAAAAAAACBxBCAAAAAAAEDiCEAAAAAAAIDEEYAAAAAAAACJIwABAAAAAAASRwACAAAAAAAkjgAEAAAAAABIHAEIAAAAAACQOAIQAAAAAAAgcQQgAAAAAABA4ghAAAAAAACAxBGAAAAAAAAAiSMAAQAAAAAAEkcAAgAAAAAAJI4ABAAAAAAASBwBCAAAAAAAkDgCEAAAAAAAIHEEIAAAAAAAQOIIQAAAAAAAgMQRgAAAAAAAAIkjAAEAAAAAABJHAAIAAAAAACSOAAQAAAAAAEgcAQgAAAAAAJA4AhAAAAAAACBxBCAAAAAAAEDiCEAAAAAAAIDEEYAAAAAAAACJIwABAAAAAAASRwACAAAAAAAkjgAEAAAAAABIHAEIAAAAAACQOAIQAAAAAAAgcQQgAAAAAABA4ghAAAAAAACAxBGAAAAAAAAAiSMAAQAAAAAAEkcAAgAAAAAAJI4ABAAAAAAASBwBCAAAAAAAkDgCEAAAAAAAIHEEIAAAAAAAQOIIQAAAAAAAgMQRgAAAAAAAAIkjAAEAAAAAABJHAAIAAAAAACSOAAQAAAAAAEgcAQgAAAAAAJA4AhAAAAAAACBxBCAAAAAAAEDiCEAAAAAAAIDEEYAAAAAAAACJIwABAAAAAAASRwACAAAAAAAkjgAEAAAAAABIHAEIAAAAAACQOAIQAAAAAAAgcQQgAAAAAABA4ghAAAAAAACAxBGAAAAAAAAAiSMAAQAAAAAAEkcAAgAAAAAAJI4ABAAAAAAASBwBCAAAAAAAkDgCEAAAAAAAIHEEIAAAAAAAQOIIQAAAAAAAgMQRgAAAAAAAAIkjAAEAAAAAABJHAAIAAAAAACSOAAQAAAAAAEgcAQgAAAAAAJA4AhAAAAAAACBxBCAAAAAAAEDiCEAAAAAAAIDEEYAAAAAAAACJIwABAAAAAAASRwACAAAAAAAkjgAEAAAAAABIHAEIAAAAAACQOAIQAAAAAAAgcQQgAAAAAABA4ghAAAAAAACAxBGAAAAAAAAAiSMAAQAAAAAAEkcAAgAAAAAAJI4ABAAAAAAASBwBCAAAAAAAkDgCEAAAAAAAIHEEIAAAAAAAQOIIQAAAAAAAgMQRgAAAAAAAAIkjAAEAAAAAABJHAAIAAAAAACSOAAQAAAAAAEgcAQgAAAAAAJA4AhAAAAAAACBxBCAAAAAAAEDiCEAAAAAAAIDEEYAAAAAAAACJIwABAAAAAAASRwACAAAAAAAkjgAEAAAAAABIHAEIAAAAAACQOAIQAAAAAAAgcQQgAAAAAABA4ghAAAAAAACAxBGAAAAAAAAAiSMAAQAAAAAAEkcAAgAAAAAAJI4ABAAAAAAASBwBCAAAAAAAkDgCEAAAAAAAIHEEIAAAAAAAQOIIQAAAAAAAgMQRgAAAAAAAAIkjAAEAAAAAABJHAAIAAAAAACSOAAQAAAAAAEgcAQgAAAAAAJA4AhAAAAAAACBxBCAAAAAAAEDiCEAAAAAAAIDEEYAAAAAAAACJU9TZBQDAziSViuhasuH+g9r6dCdXAwAAAJBcAhAAyJOK0oI4ZLeuMaJ3SQzrVRp9uxVFl+JU1ph1jelYWNMUM5Y3xJQl9ez3U4MAACAASURBVPHcnDrBCAAAAEAOCEAAIMf6VRTFuQdUxvt2LY/iwlSbY8uKC2Joz5IY2rMkjhneLS4eWx0vzKmLu8atisVrmjqoYgAA2quwqCh222//GDJqVFQPGBj3fvPrbY4//jOXx7qampg7cWLM/tdrkclkOqhSANh5CEAAIIdO3rsizhtTFaVFbQcfm1NSmIrDh3aNg3Ytj7vGrYq/TKrJcYUAAOTa4H32jfed/tHoWlkZERHNjY1bnFNW0T12GT4idj/gvbH8rWPixfv+GIumT893qQCwU3EIOgDkyNn7V8ZFB1Vvc/ixsdKiVHzqoKr45HurclAZAAD5Muakk+OoT13UEn5si54DB8YHL78i3vOBI3NYGQDgCRAAyIEjdu8aHxvdY7PXm9KZWFjTFCvXNUdDcyYKIqKoMBXV5YXRr6Ioigo2HZp8ZJ/uMWtFQ/xzxto8VQ4AwLYadcyxMeqYY3OyViqVigM/fGo01tfHlOeezcmaALCzE4AAQDuVlxTEBQe2flKjriEdD79ZG8/PqYvpy+ojvZltnQsLIvboVRqH7FYexw2vaHVQ+oUHVsXL89ZFXYPD0QEAthd9hgyJ/U84cZPX1tXWbnH++s2MOejUj8SCKW/GmuXL21UfACAAAYB2O3hweVSWFWb1vTxvXdzw1LJYU7/l0KI5HfHmkvp4c0l9/HF8TXzpiF6xT/8uLdcrywrj4MHl8Y9pW/4iDQBAx3jvKR+OVEH2zuKrFy+OF/74h5g/dcoW5z/8k5ui7+67x9jTPxrVuwxo6S8qKYmDzzgzHrn1lpzXDAA7GwEIALTT+waXZ7UnL66P7z22NJo398hHG1ata45vProkfnhyvxhaXZL1GgIQAIDtQ48+faLv0N2z+lYuWBAP3vijaFy//l2vs3jGjHjwR9fHCZ/9XPTaddeW/gEj94zqAQNixfz5OasZIBd+fPCfOuR1PvvcRzrkdUg+h6ADQDsNqizOav/m1VXbFH78R0NzJn73r9VZfQMr3bMAALC9GDxqdFY7k07HP+/61VaFH//R1NAQT/36rkins58cHjJqv3bVCAAIQOgkBQWp6NG9W/To3q2zSwFot6ryt7e/ykTElCX17V7zzcXZa1SXCUAAALYXA0aMzGrPf/ONWLFg25/WWLV4Ucx/Y3JWX7/dd9/MaADg3fLXFPKusrIiPnj0wbHfvsPjPXvtHoMG9I3y8i5ZY9auXRdz5i2MiW/MjH+Nnxp/+8fzsbrGVi/ADmLbH/bYipfogBcBAOBdKe/RI6s9/803273mgqlTY9De72lpd+/Tp91rAsDOTgBC3gwa2De+dMXH45gPHBQlJcVtju3atSz2Gjk09ho5NM449ej4+lUXxaOPvxDX/fg3MW/+4g6qGGDbrFzXHP2LN/yTmoqIkX1KY/zCrd/+YGN79i3Naq+oa27XegAA5M47A5A1K1a0e83ad6xRWlbW7jUBcq2uqTbKi97e0WVVw/JYvM55RWy/BCDkxSfPOSm+eMXHo6xL6ZYHb0JpaXGc/MHD4ugPHBjX/fg38ctfP5DjCgFyZ96qxujf/e1/Uj8+pjK++tDiaNrGc0BKi1LxsdHZX6rfWt3YrhoBAMidwqLsP6cUFLR/h/FUKpXdzsGaALl23+w745xhn2lpF0RB/N+Ua2Nd09pOrAo2z7+m5NyVl50VV/+/C7c5/NhYWZfS+NqXLogvX3leDioDyI8X5tRltUf2KY2vHdM7unfZ+n9mq8oK4+vH9okh1SVZ/c/PWdeuGgF2FI2NjfH4E09k/QewvWlYl/27Wdeqqnav+c416uvqNjMSoPO8uOTxmLJ6fEu7e0lVnDTorE6sCNrmCRBy6pQTD4/PXnLGZq83NjbFnHmLYumylVFf3xAFBQVRXFwUfXpXx64D+0Zx8ab/l7z4/FPjjamz4y8PPZWv0gG22XNz6uK8Ayqjsuztw9D3H1AWP//ogHh0am28MGddTFlSv9knQooKUjGyT2mMHVIexwzvFl2Ksu/+W1nXHC/M9gUY2P49/cwz8bvf/yGmTpsWixYtip49e8bYgw6Kj515Ruy7zz7vao2ampo44UOnZPWtX1OTj3IBttnqJUuiS7e3t4AZMHJkTHqyfYHtOw9Wr1m6tF3rAeRDJjLx2xm3xldH/ShKCjec8XtY/w/GuGXPxMw17T8PCXJNAELOVHQrj69+4fxW/Wtq6+Lue/8Wjz7+YkyYND2a0+lNzi8sLIxR++wRHzx6bHzstGNbHZT+3188P5546pVYU+uPgMD2pa4hHbe/tDL+6/29svrLigvilL27xyl7d490JmJJbVOsqU9HXcOGz8HykoLoXloQvbsVRUFqUytv8IsXV0Zd46Y/OwG2B/X19XHJZZfFPff+PvvCtGnx/AsvxI9uuinOOP20uP7aa6Nnz56dUyRADi2dMzv6Dh3a0h4wYmRUDxgQK+Zv2z74Vf37x4CR2QHIsrlz2lUjQL4sX784/vbWH+JDgz8eERGpSMXHdv90/OD1L0ZzpqmTq4NstsAiZ447amz06lmZ1ff4U6/EESdcEj+88a7414Spmw0/IiKam5vj1X+9Gd/931/GB066NF54eULW9V49K+O4o8bmpXaA9npyxtr47WurN3u9IBXRr6Io9uhVEqN26RKjdukSe/Qqib4VbYcffxxfE0/PspcqsP1qaGiIkz58auvwYyOZTCZ+9/s/xIGHHBovvPhiB1YHkB9zxr+e1U4VFMRhZ388iku3fivoopKSOOzsc1qd+TH7Ha8BsD15bMGfY97amS3t/uW7xtEDTu3EimDTBCDkzLFHHZTVfuW1N+LSz18Tq1bXbvVay5avigs/852YPGVWVv8xRx7YrhoB8um3r62Kn7+wIuqbtu3w842tb8zET59fEXe+sjIHlQHkz7XXXx9PP/PMuxo7f/78OO7Ek+JP99+f56oA8mvxzJmxbN68rL6eAwfGcZd+JrptxXkg5d27xzGXfDp67To4q3/F/PmxeObMzcwC6HzpTHPcM+PWSGfevtn5+IGnR7+ygZ1YFbRmCyxyZthu2R9w1//k7mhqat7m9dbXN8RPfnpv3HL9l99+jaGDtnk9gI7wwOQ18eLcdfHxMZVx8JDyKCls4/GOTahvysSzs9bGr19dHcvWenQY2L4tXrw4fvi/17Xq323IkNhz5MhYvGRxTH7jzVi30WHB9fX1ce4nz491t6yLc852YCaw43rlL3+O4y/7TETq7d/3+uy2W3z4y1+JKc89G9NefDFWLVkckWl9c0yPPn1i2IEHxchDDo3S8vLWaz/4wCbnAWxP5tbOiC+/dF4UpN6+x74xXd+JFUFrAhBypnfvt+9yyWQy8fqEqe1e89XXsw9P6tPr3d9JA9BZltQ2xfX/XBY/fb4gxg4ujxF9SmP3niXRr6IoupYUtHxHTmci1jakY2FNY8xc3hBvLm2IF2bXOe8D2GH88b77o77+7S+5hYWF8eMbfhTnf+ITkfr3h92SJUvi29/7fvzi9tsj8+8/5jU3N8fFl10WBYWFcdaZZ3RK7QDttWDqlJj81FOx1/vfn9VfUlYW+xx1dOxz1NFRv3Zt1CxbGg3/DoJLysqiolev6NK126aWjIiIN599Nt6aPCmvtQPkyvpmZ/WyfROAkDsdcHNKxh0wwA5kbUM6/jGtNv4xLXsrwLLigshEJtY3+kwDdmwPPvRQVvu/Pve5uOCTn8zq69OnT/z4hh/FwWPHxqWXXx7r16+PiA0hyKcuuSQKCwvijNNP77CaAXLpxfv/FOU9esSQ0aM3eb20a9fo3bXru15v7sSJ8cIfN3+mEgCwdZwBQs4sXfb2PvWpVCr2GzWi3WuOGb1nVnvJMnvhAzu+dY1p4QeQCHPmzMlqX/ypT2127FlnnhF/uvd30XWjrV6am5vjgosujj/86U95qxEgnzLpdDxxx+3x+t8fjUx625/izWQyMfGJx+Ox//t5pJu3fStpACCbJ0DImWkz58XgXfu3tL9w+Tlx1oVfi8bGbdvDvqxLaXz2kuwtEWbMfKtdNQIAkDuLFi1q+bmiW7cYOHBAm+OP/MAH4oH774tTPnJarKnd8HRcU1NTfPLCT0UqlYrTTj01r/UC5EMmk4lxDz4Qc8aPjwNOPjl2Gb51NwMunD4txj3wQCyZPStPFQJ0rkFdh8aongdF7y67RGVpzyhOFUdN46qYWzs9Xlv+fCysm9vZJZJgAhBy5u+PvxRHH3FgS3u/USPiZzd9Nf7rKzfEylU1W7VW716VceMPvhgjhw/J6n/k8RdyUisAAO1XWFjY8nOXsrKWcz/acvDYsfHHe38Xp5x2esvh6P8JQQoKCuLwQw/NW70A+bRs7pz4280/iap+/WPXffaJfnvsEZV9+0XXysqscWtXrYrVixfHwunTYu6E8bFy4cJOqhhg6x0z4O0bVtKRicfm37/Zsd2LK+PsYZfH3lX7b/L63lVj4vhBZ8SEFS/F72f+IlY1LM95vSAAIWceeez5+NLnPh69er79y93hB+8X/3zotvjdn/4ef3/ipXht/JTNPhFSXFwU+48aEccdNTY+eupRUV7WJev6kmUr49HHXszrewDYFp85pGdW++Znc/NL27eP75vVvvpvi3OyLkCu9O/fP2rWrImIiGXLlsWiRYuiX79+W5x3+GGHxW/vuivOOPvsaGhoiIiIxsbGOO/8C+KG6/43rzUD5NvKRQtj5aKF8frfH23pKykri4hoOQwdYEf1ocHntvyczjRvNgAZUjE8Lh75lago7tHmeqlIxb7VB8XQij3j1je+HXNrZ+S0XhCAkDNrauvie9f9Mq7/3uez+rt2LYsLzv1QXHDuh6I5nY4FC5bGytVrYs2atRERUVHRNaoqK2KX/r2jsGDzx9J854e3R+3aury+B4BtcdyIblnttgKQrQk1Ru3SZbPXALYHewwbFlOmTo2IDVvA3PDjH8c13/3uu5p7/HHHxh3/94s495PnR/O/97tvbGyMz175+S3MBNjxCD6AnUmPkuq4aMSXtxh+bKxbcfe4dM+r49rxX4oV9UvzWB07GwEIOfXnvz4VQ3bdJa749JmbvF5YUBCDBvaNQQP7bvL65vz09j/FXx95JhclAnQqoQaQJB/58IfjwYceamnf+OOfRFVVVXz+iiuipKTkXc2vu7kuLrr00shkMhERkW7HIcIAAHS+s3a/LLqXVLXqb0jXx5J1CyKdSUevLn2jvCj7ZsJuxd3jzKGXxK1vfKejSmUnIAAh52689Z5YtXpNfOlz50ZZl9J2rVVXtz5+eOOv4q57Hs5RdQAA5MrJJ58U1VVVsWLlyojY8BTI17/5rbjxph/HqFGj4t7f3h0V3bq1ucbHzzk7atfWxpVf+GJHlAyQVwWFhZH+91Ntm1JSVhbdqquja2VVFBQWRt3q1bFy4YJo+vd2gAA7uv7lg1qd+bG+uS7um31nvLT0yWhKN0bEhq2v9qwcHR8delH06vL2Fqp7Ve0fQyqGx+w1Uzu0bpJLAEJe3Hn3X+OxJ1+Oz19+dhx/9NjoUrrlOwA3tm59fTz86HNx/c13x8JFy/JUJQAA7VHRrVtcd+21cf6nPpXVv2LlynjiySejob4+YgsBSETEpy++OBobm+JLV12Vr1IB8mrI6NGx52GHR2FRUTz4o+tbXe83bFiMPvb46L/HHpF6x9bPzY2NMW/y5Bj/j0dj2dy5HVUyQF6MrByd1a5vXh83TfyfmLd2ZlZ/JjIxedVrcd2Eq+IL+1yTFYIc0OswAQg5IwAhb95asCS+8NUb4pvf/3kce+T7Yr99h8feew6NXQf1i4puXaOgIBUREc3pdKypWRuz5y2MN6bMildfnxKPPvai8z4AAHYAZ515Rjz9zDNx+x13tGudz37msli+fHlcc+21OaoMIP+KS0vjyAsujAEj94yIaBVgFBQWxpgTT459jjwyIpXa5BqFxcUxZNSoGLzvvjHx8cfilQf+0rItIMCOpmdpn6z2YwvubxV+bKy2sSbum31HXDTy7RthhlaMzFt97HwEIORdzZq18Yc/PxZ/+PNjWf1du5ZFJpOJurr1nVQZAAC5cPNNN8awYbvHd7/3/Vhbt+03sXzjf66O2rW18ZNbbs1hdQD5UVRSEsdddnn0GTJks2MOPevsGPbeA9/VeqlUKvY56ujo0q0inr7717kqE6BDVRRXZrVfWfr0FudMWvlqNKYborhgww4yPbts3dnB0BYBCJ1m7dp1nV0CAAA5kEql4r8+97k49+yz43e//0M8+9xzMe+teVFYtPVfN6695pqo6FYRU6dNy0OlALmz3/EfbDP8GHnoYe86/NjYHgcdFEtmz4opzz3bnvIAOsXapjVZ7RX1S7c4pznTFLWNNVFV2isiIkoLy/JSGzsnAQgAAJATvXv3jssvuzQuv+zSbV4jlUrF16/+Wg6rAsi9btXVsfcRH2jVv3z+WxGx4emQMSee1Or6muXLY9qLz8eK+Qsik8lEZd++scdB74vKfv2yxh1w8odi5rhXorG+Pj9vACBP5tZOz2qXFZVHbWNNm3MKU4XRvaSqpf3OEAXaQwACAAAAsBV2G71fFBQWtrQzmUw8ddevYsa4VyIiYuCee0ZpeXnWnGkvvhDP/f7eaG5sbOmbN2liTHryiRhz0odin6OOaukvLS+P3Q84IN581lMgwI5lwoqXo755fZQWdomIiCHdhsfEla+0OWd4j32iMPX2Z2pNw8q81sjORQBCp9p7z6Fx3JHviyGD+0e/vr2itKQ4li5fFRMmTY+H//5cTJ0+d8uLAAAAQAcatPd7stqzXn21JfyIiOjRN/uJjkUzpscz9/w2Mul0q7XS6XS8/Jf7o1t1Vey23/4t/QP3eo8ABNjOpaK6tE+sblgezZnmiNjw9MbDb90bHx58XkREHNL3mDYDkOKCkjjl32P/Y9aaKfkrmZ2OAIScueSCj7T8nE6n4+d33L/Zsb17VcY137g8jjhszCavf+CwMfHZS86IfzzxUnzjmp/HosXLc14vAADt88f77stqn3bqqZ1UCUDH6lZdndWe/srL2derqrLarz/66CbDj4299reHswKQ6gED2lklQH4VpArim2Nui3QmHTWNq2JF/ZJYWb80VtYvi5rGVdG9uDL2rj4gxvQ6NMYteyZrbmGqMHarGBGnDD4vBnTNPk/pteXPdeTbIOEEIOTM//vcuS0/Nzc3bzYA2W/f4fHTG78aPat7tLleKpWKY448KMbst2dc8Jlvx4RJ09scD7C9OGS38i0P2oaxANubc877RFb7tDWbD0Befe1fWe399xudl5oAOkJZRUVWu3ZF9k177zy7Y9ncOVtcc9WiRdGwbl2UlG04/LesW7d2VgnQMQpSBVFZUh2VJdURFSOzrqUiFf3KB7Wac9zA0+ODg85s1T+vdkbMqJmct1rZ+QhA6FB9e1fHLT+6aovhx8aqq7rH7TdfHR8+64sxf+HSPFYHkBtf/kDvvIwF2JEdfPjhWe31a9o+DBNge5bJZLLahUXFWe01y7MDkXeO35x0U1P7CgPYDi2se3db3KczzXH3jFsinWn7iTnYGgWdXQA7l+99/bLo06uqVf+69fUxecqsmDBpeqyuqW11vbqqe3z7a5/uiBIBAACgTXU1q7PavQZl3908d8KErC2veg5qfffzO5V17x5dNnrqY92aNe2sEiD3Zq+ZGqsaVkT632d+vBsL6+ZtcUxTujF+OfX6eGvtrPaUB614AoQOs8fuu7Y686N2bV18/7o74k8PPBkNDY0REVFQkIpDx46Ob37l4th10NsHx73/0P1j9D7D418TpnZo3QAAALCxpXPmRPdebz/Ju9fh749pL70Y6eZ/HwK8amXMmTA+hozasN3fPkceFQunTYto40mQvd9/REQq1dJesWBBnqoH2HbXTbgqIjZse1VRXBmVJT2jR0lVVJb2ih7FVVFZ2jN6lFRHj5LqqCrpGUUFJbFkXdufZ4vXzY97ZtwW02smdcRbYCcjAKHDHHZw9j7PdXXr4+wLr45Jb8zM6k+nM/HUs6/FRz7+5fjTr3+QFYJ86ITDBSAAAAB0qlmvvhq7jzmgpV21yy5x2NnnxNN3/6YlBHn+9/dGn92GRnn37jFwz71izIknxbi/PrjJEGT3MQfEPkcdndW3cOqU/L4JgHZIZ9KxumFFrG5Y0ea4koLSaM603t5vTu30eGjePTGz5s2YunpCZOLdbRUIW0sAQocZuEufrPbP7rivVfixsZWrauK71/0yfnrDV1r6xoweudnxAJ3l5meXb3kQAACJMW/ypFgxf35UDxjQ0rf7Ae+N6gED47WHH4p5kybGujVr4tHbbokjL7gwuvfqHaOOOTb67jY0Jj35RCydOzcy6eao2mWXGDH24Nhtv/2z1m+sr4/pL7/U0W8LIOca0vWb7J+0clxMWjmug6thZyQAocP06lWZ1X7g4ae3OOefz7wa6+sboktpSUREDBrYNy+1AbTHI1Nan10EAEByZdLpeOaeu+PEK66MwuK3D0Cv6t8/jrzgwmisr49l8+bGmmXLYsGUqS3bZfUbNiz6DRu2xfUnPPaPqK+ry1v9ALCzcAg6HWbVquwD3OYvXLrFOY2NTbFyZU1Lu2t5Wc7rAgAAgK21bO7cePLOO6K5sbHVteLS0ug/bI8Y/r6xMfKQQ7Zq3bfemByvP/pIrsoEgJ2aAIQOM37i9Kx2t67lW5xTVFQYvXtVtbRXviNEAQAAgM4yZ8L4ePgnN8XqJUtyst70l1+Kx2//v8i0cVg6APDu2QKLDvOPf74UdXXro7y8S0RE7Lfv8Hj8qVfanHPwgftGUVFhS3vpsrYPVgLYnhWkIrqVFkR58Yb7D+oa07GmPr2pczABANhBLJk9O+7/4TUx4uCD4z1HHBndqqu3eo0V8+fH648+ErP+9VoeKgToXIO6Do1RPQ+K3l12icrSnlGcKo6axlUxt3Z6vLb8+VhYN7ezSyTBBCDkRyoVA3fpE4uWLI+mpuaI2LAF1k0//V1c9flPRETEx04/ts0ApEtpSfy/K8/L6ntt/NT81QyQY6lUxOhdyuLAXcti776lMaBHcRQXprLGNDRn4q3VjTFpUX28NLcuxi9YH/IQAIAdS3NjY0z+5z9j8lNPRZ8hQ2LAyD2j9+DB0b137+haWRWFRUVZY+vr6mLV4kWxeObMWDhtaiyaMSPcFQPsCI4ZcGrLz+nIxGPz79/s2O7FlXH2sMtj76r9N3l976oxcfygM2LCipfi9zN/Easalue8XhCAkBeFBQXxz4d/Gs3pdCxbtjLeWrA0FixcGgsXLYuly1ZF716VceThB8RJxx8aD/7tmay5RUWFsf+okfH/rjwv9hwxJOvaXx95tiPfBsA2O3hIeZw7pjIG9Chuc1xJYSqGVpfE0OqSOHmvipi3qjHuGrcqXpjj0Etgx/PH++7Ly9jTTj11y4MAtgeZTCyZNSuWzJqV1V1YVBRFJSXR1NAQzU1NnVQcQPt9aPC5LT+nM82bDUCGVAyPi0d+JSqKe7S5XipSsW/1QTG0Ys+49Y1vx9zaGTmtFwQg5FVhQUH07dMz+vbpGWNGj8y6lkqlYo/dB7Wa85mLPhpXfPrMVv0TJ8+IV16dnLdaAXKhS1Eqrjy8Vxw8ZMvnHG3KoMri+OpRvePpmWvjxqeXR0OzOwGBHcc5530iL2NPWyMAAXZszU1Ngg9gp9GjpDouGvHlLYYfG+tW3D0u3fPquHb8l2JF/dI8VsfOxiHodKqp0+e9q3HNzc3xlW/eEs3pdJ4rAth2XYpS8e3j+25z+LGxw4Z2jW8d3zdK3rFlFgAAAGzPztr9suheUtWqvyFdH2+tnRVza2dEXVNtq+vdirvHmUMv6YgS2Yl4AoSc+deEqdG/b8/o1bMyCgsLtzwhIqbN2PIhRw0NjfFfX70hJr85s70lAuTV5w7rFSP6lG7y2vrGTExfXh9LaptjXcOGMLe8pCD6VBTFsJ4lUVrUOujYq29pXH5oz7j+n8vyWjcAAADkQv/yQa3O/FjfXBf3zb4zXlr6ZDSlGyNiw9ZXe1aOjo8OvSh6denXMnavqv1jSMXwmL3GOcDkhgCEnDnt41+OiA3bXvXqWRn9+vaM3r2rYpd+vaJ3r6ro33fDVlh9eldH/749o7S0JGbNWdDmmjNmzY+rv3NrvPjKpI54CwDbbOzg8jhkt9ZPfkxatD7+NKEmxr21LtKb2c2qsCDiwF3L47R9usfw3tkByhG7d41nZq2Nl+auy0fZAABsg0PO/FhW+9nf3ZOTdY+/7PKs9t9u+UlO1gXoKCMrR2e165vXx00T/yfmrc2+sTkTmZi86rW4bsJV8YV9rskKQQ7odZgAhJwRgJBzzel0LF66IhYvXdHmuLIupdHY2HoP1PETp8UNt/w2xv3rzXjh5QmR3txfDAG2E6mIOGu/1nub3jVuVfzh9dWxpU+x5nTE87Pr4sU5dXHO/pXx0VHZa521X6UABNgu3XzTjZ1dAkCnGHHwIVnttgKQrQk1dhkxon2FAXSynqV9stqPLbi/VfixsdrGmrhv9h1x0cirWvqGVozc7HjYWgIQOs269fWb7H/i6XHxxNPjOrgagG03sm9pDKkuyer786Sa+P3rq7dqnXRmQ2jSvUthHDeiW0v/7j1LYo9eJTFtWUNO6gXIlQvPP7+zSwDY7gk1gJ1JRXFlVvuVpU9vcc6kla9GY7ohigs2fK/u2aVvXmpj5+QQdABopwMHZW99VbM+Hb95ddU2r3fnKyujrjGd/Rq7tv9gdQAAAMintU1rstor6pducU5zpilqG2ta2qWFZTmvi52XAAQA2mmP3tlPfzw1c22sb9z27ftq69Px9My67NfoVbKZ0QAAALB9mFs7PatdVrTlm/kKU4XRvaSqpf3OEAXawxZYANBOA3oUZ7UnLlrf7jUnLlqftQ3WeceK1gAAIABJREFUO18DIAmmTZ8eEyZOjNra2ujXt18ceOB7o7JH6zOVAADYMUxY8XLUN6+P0sIuERExpNvwmLjylTbnDO+xTxSmClvaNQ0r81ojOxcBCDnz3asvzWr/97dvzcm6v/rpN7La513yjc2MBOgc3UqyH6hcUtvU7jUXrcleo6KLhzaB7V9d3boY9+q4mDV7dpSWdolDDx4bAwYMaDXu9fHj47NXfj5eevnlrP7S0tI4+2Mfi+9+65tRXV3dUWUDALBNUlFd2idWNyyP5kxzRGx4euPht+6NDw8+LyIiDul7TJsBSHFBSZzy77H/MWvNlPyVzE5HAELOfOz0Y7PabQUgWxNqHPK+Ue0rDCDPSopSWe21DenNjHz3auuz1ygrEoAA27fbfvaz+N4PfhhLlixp6SsqKoqLP3VhXPPd70ZJyYat/J597rk4+dRTo65uXas16uvr45d33hnPPf98PPSXP28yPAEAYPtQkCqIb465LdKZdNQ0rooV9UtiZf3SWFm/LGoaV0X34srYu/qAGNPr0Bi37JmsuYWpwtitYkScMvi8GNB1SNa115Y/15Fvg4QTgNAphBpAkqTe0W5uf/4Rjc3ZZ4ik3vkiANuJTCYTn//il+K2n/2s1bWmpqa45bafRs2aNfGL226L2rVr49zzL9hk+LGxKVOnxrEnnBgvPf9cdC3f8r7RAAB0noJUQVSWVEdlSXVExcisa6lIRb/yQa3mHDfw9PjgoDNb9c+rnREzaibnrVZ2Pm4nBQAAttkdv/rVJsOPjf36N3fHU08/Hb+5++5YsGDBu1p3xsyZ8f1rfpCLEgEA6EQL6+a+q3HpTHPcPeOWSGdycFch/JsnQAAAgG2yavXq+O//+fq7GnvXb+6OxUsWZ/XtOXJkHHP0UVFQUBBPP/NMjHv1tazrN918c1xx+WeiT58+OasZAIBtN3vN1Kgs7RXdi3tEwUYHl7dlYd28LY5pSjfGndNuiLfWzmpviZBFAAIAOXbAoLJYvb65XWv06PLufpEE6EwPPvjXWLFiRVbfx885Oy74xCcilUrFb357T/zi9tsjIuK+++/PGveFK6+Mb33j61FY+Pbn3Y9uvCm+8rWvtbQbGhriwYceigs++ck8vgsAAN6t6yZcFREbtr2qKK6MypKe0aOkKipLe0WP4qqoLO0ZPUqqo0dJdVSV9IyigpJYsq7tJ4AXr5sf98y4LabXTOqIt8BORgACADn26bHVnV0CQIf4y4MPZrXPOP30+MVtt7W0x77vfRER8Yvbb4/atWtb+g8/7LD4zre+Gal3HHD0+c9dES+8+GL8+YEHWvr++tDDAhBgu7fb6P3yMhZge5XOpGN1w4pY3bCizXElBaXRnGlq1T+ndno8NO+emFnzZkxdPSEykdnEbGg/AQgAALBNpkydmtX+6lVfbjXmqi99Me68665obGxs6bv0kotbhR//8emLL8oKQGbOsg0CsP37wPkX5GUswI6uIV2/yf5JK8fFpJXjOrgadkYOQQcAALbJkiVLWn4uKyuLEcOHtxozcODA2GPYsKy+9x144GbX3G+/7DujF2/0GgAAAFtDAAIAAGyTdevXt/zcrVu3zT7Vseuug7LavXv33uyapSUlWe21G22dBQAAsDVsgQUA7XTzs8s7uwSATtG7d6+YN++tiIhYtmxZrF+/Prp06dJqXHlZeVa7qGjzX0PmzJ37jtfYfFgCAADQFgEIALTTI1NqO7sEgE4xYJcBLQFIJpOJhx95JE495ZR2rfn4E09mtfv17dOu9QDy4dnf3dPZJQBsN4oKimP/ngfHqJ5jY2DX3eLr4y5pc/zle38jahpWxsSVr8Rry55zADp5JQAhb0449uC8jAUAYPtw5BFHxAsvvtjSvva66+KkE06I4uLirHE//+ltcfOPb9rierVr18YN7xh3UBvnhQB0linPPdvZJQBsF/atPig+OvRTUVnSMyIiGtONW5zTvbgyRvTYN97b+/1xzICPxB9n3R7Tayblu1R2UgIQ8ubH134pL2MBANg+nHzSSfG9H/ygpf3qa/+KD578objyis/GSSec0NLftbw8upaXb2qJFpPfeCM+e+XnY+7cedmvceKJuS0aAICcOHnXc+LYgae1a42BXXeLK97zrbh/9p3x+IK/5KgyeJsABADyrKK0IAb0KI5upQXRraQgSotSUd+UibrGdCxb2xyLapqirjHd2WUCbLX9Ro+K4487Nv72yKMtfc88+2xMnDgxFr01r42Z2b757e/E93/4w1b9I0eMiEMPOSQntQIAkDvHDjyt3eHHf6QiFacO+WTUN6+PZxc/uuUJsBUEIACQB7t0L4oT9+oe+/bvErtWFUeqjbGZTMS8VY3x6vx18dTMtTF9WUOH1QnQXj/43vfi6aefibV1ddu8RlNT0yb7f/S/17Z5YDrA9qagsDDSzc2bvV5SVhbdqquja2VVFBQWRt3q1bFy4YJoavD7H7DjGFIxPE4cdNYmr9U2rt7i/NrGmk32f2TIJ+PN1a/H8vWL21UfbMy3CQDIoYrSgvj02Oo4dLeukWor9dhIKhWxa1Vx7FpVHB9+T/eYtGh93PHKqpiypD6/xQLkwIjhw+OP9/4uTv3oGbFu3bqcrXv1f381PnDEETlbDyCfhoweHXsedngUFhXFgz+6vtX1fsOGxehjj4/+e+wRqYKCrGvNjY0xb/LkGP+PR2PZ3LkdVTLANvvw4E9EQSr7s2zxuvnxh1m/iCmrxm9x/k2T/id2775XfHToRTGgfHBLf0lhlzhz6CVxy+Rv5bxmdl4CEHLmv799a2eXANCpBlcVx9XH9Ik+3dr3z+ve/brED07sF79/fXXc/eqqyOSoPoB8OeL9748n/v5ofPHLV8Uzz7bvYODS0tL49je+EVdc/pkcVQeQP8WlpXHkBRfGgJH/n737DJCquvs4/puys70XttCL9N5BioAIAip2QyzRmBi7IeVRY6yxJiiJxkKiWFCjoiBSBBVBQFR672xhYVm29zrzvBjZ3cv23Rl2Gb6fV9xzzz33PwNsmd895/SUpGoBhtli0eBpM9R3wgTV9nSMxctLHfv3V4d+/bTrm6+1acnncjj4CRBA6xTlG6cuQT0NbccLEvTizodVVN7wGcGHc/Zozo4HdV+fJ9U+oEtFe8+QAYrz76jk/HiX1YzzGwEIXObDT1ijD8D5K9jHokcnRynC3zXfWs0m6boBwQrxteiV9ekuGRMA3GlA//76asVyJScna/+BA426Njw8XBeOHq0xo0frlptvUof27d1UJQC4jtVm0yV33q2ojh1r7XPhDb9Q16HDGjSeyWRS34mT5BMQqO/ef89VZQKASw0IH2E4tjvseufAS40KP04rsRfp3YNz9eCAF2U2WSraB4aPJACByxCAAADgAneODqsx/EjOLlVmYbnaBFgV+fPMEIekt37M1NGMEoX7WdQ+1Kb+sT7qHG6rtlfIJd0DdCS9RMv35br/RQCAC8TFxSkuLq5R19x/7z26/9573FQRALjHwClT6ww/elw4psHhR1Xdhg9XavxR7d/QvBl1AOAOPYL7G473Zm1TckFCk8dLKTymPVlb1Sd0SEVbl6BeTR4POBMBCAAAzdQh1EsjOvgZ2hIzSzX3uzQd/HlDc5Okwe18de+F4QrxteiWoaGatzFDS/fmSsqX5NwH5KbBoRrW3tcw1k1DQrTuaL5yi+1n4+UAAACgHgFhYeo9/qJq7enJxyQ5Z4cMnja92vnc9HQd/OF7ZSQfl8PhUEibNuo2fIRCoqMN/YbMuExHNm9SaTF7wgFoXYJtYYbjfVnbmj3mgawdhgAkyie22WMCpxGAoFWzWi0aPqSPoW39xu0tVA0A1GxcZ3/DzI2U3DL9eWmK8ksqAwuHpE1JhXpo2UnNuSxGPl4m3T4iTAmZpdqVUiTJGZo89VWqbhgYrBsGhlRc628za3wXfy3ZwywQAACA1qDTgIEyWyqXa3E4HFr77js6vHmTJKltz57y9jM+IHPwh43a8PFHKi8trWhL2r1Lu79drcHTL1PfiRMr2r39/NRlyBDta+a+SgDgasG2UMNxRnFqs8fMKD5lOPa1BjR7TOA0AhC4zfAhvTVj6hh17hinyIhQZWblasu2fVq8bI327m/YOn6BAf565/XHDG1d+s90R7kA0GR9YnwMx/N/yjSEH1Udyy7Vwp3ZmjUoRGaT9NuRYbrns+OGPh9uzVavNj7qH1s57uC2vgQgAFqdhZ99Zji+aiY/pwE4P7TrbXxQ7+iWLRXhhyQFtzHO6Eg5fEjrPvxADnv1nxHtdrt++nyRAsJC1WngoIr2tr36EIAAaHWsZi/DcdW9O5rKZDKfMeaZi0MDTUcAApez2bz03ON367JLx1Y7N3hAD/365sv1xYp1evzZ/ygzK6cFKgQA14oOrPx2WmZ36IfEujd/W3e0QLMGOWd4dAj1Uo8ob+1LrVzewCFpxb5cQwDSMczm2qIBwAVm3XSz4fiq3NoDkC1bjcsjDBo4wC01AcDZEBBmXALm0KafjOdDjU9Ib1+5ssbwo6qtK5YbApCwRu6nBABnQ2FZgQK8giqOQ23hzR7zzDEKyvKaPSZwGgEIXMrLy6r5rz6q4UN619rHZDJpxtQxGjqol+7509+1Zdu+s1ghALhegHfl0ypZhXaV17NVx6m8MsNxzzbGAESSkrJLDceB3sYnYgDgXDNqrPHhmKJcHoQBcO7yDQw0HOdlpBuOz9y7Iy2x/g2Cs1JSVFJYKJuvcz843wCWgAHQ+qQWHTcEID1CB2r1iS+aNWaPEOODMaeKUpo1HlAVn6bApe649co6w4+qotuEa8G8JzT14lFurgoA3Cu3qDLxCPIxq77JugFnhBlR/tWfR/D1MvYpLnM0uT4AAAC4lsNh/NnMYjUuCZObbgxEzuxfG3tZWf2dAKAFxeceMBz3CO6vOP+OTR4vxq99tQAkIe9Qk8cDzkQAApeJjAjRnb++ulp70rGT+mbtJu3cfUhFxSWGczabl+Y+P1szZ1x0tsoEAJdLLyiv+LPNYqq2J8iZBsT5Go5L7dV/Ie4e6W04zqhyDwAAALSsgpxsw3FEu3aG48SdOw1LXoWfcb4mvkFB8qky66Mwl/3fALQ+29M3Go7NJrN+2fUeeVt8a7midjazt2Z1vVvmM/YAOfMeQHMQgMBlpl48WjZb5VMv5Xa7Hn7i37po+u90+z1/0xW/+KPGTf2t3v/4S8PTLxazWc89cbcun1Z9zxAAOBccO2O5qhsHh8hSy3dYPy+zrusfbGg7c0msYB+LruobZGg7kmEMkAEAANByTiUYl7TqNXaczJbKjYDzszKVsHNHxXHfCROlejb17T1uvKFPxvHjLqoWAFznSO4+JeUdNrS19e+ku3o9olDviAaPE2QL1R09H1aHgK6G9uT8eB3J2euSWgGJAAQuNGn8UMPxvPmL9OHCVYawIy09S4889ZpmP/ySiosrPzC0mM164an7NH3KhWetXgBwlY0Jxk3Pe0R568EJUQryOWOpqwCrHrskSjFBxiWv9px0rhFtMkkD43z1woxohfpZDH2+O5LvhsoBAADQFEe3bDEch8bGaswvZhlCkO8//kgFOc79jtr27KXB06bXGoJ0GTxEfSdOMrSdOLDfxVUDgGssTnhXDhlXMugU2EMPDnhJl3e4UdG+bWWqZXHoKN84zWg/Sw8PmKtuwX2qnV+S+F61sYHmYBN0uEzb2CjD8YKPVtTad/HStUpLz9ZrL/2f/HydS8VYzGbNefp+OewOLV253q21AoAr/ZBYoJTcMkUHVn5bHdbeV29e11Y7ThQps6BcUQFW9Yn2qTYz5FBaiQ6nO2d3XNEnSL8aGlpt/KSsUm1JLnLrawAAAEDDJe3ZrYzkZIXFxVW0dRkyVGFxbbV1+TIl7d6lwtxcrXzt35pw620KiohU/4snq02nztr97WqdSkyUw16u0NhYdR85Sp0GDjKMX1pcrEM//Xi2XxYANMj+7B1ae2KZxsVMM7T7Wvw0KW6mJsXNVH5Zrk4VnlBheUHFuQifaMMG6mdaf3KldmduqfU80BQEIHCZyMjKD+3y8wt1IiWtzv7rN27Xr373hN585RH5+zvXCbRYLHrx2QfkkEPLVm5wa70A4Crldum1DRl6dHKU4aE+m8WkIW1rXwfV7pDe+imz4thSwxOB5XbppbVpKq9hnxAAAAC0DIfdrnUfvq9p994vi1flUtChMTGacOttKi0uVlpSonLT0nR8/wEFRURKkqK7dlV01661DVth59dfqbigoN5+ANBSPo1/S8G2MA0IH1njeX9roPwDAxs83q6Mn/TxkXmuKg+owBJYcBl7lQ3eiopLDEtf1WbT1r26/d6nDZujWywWvfjM7zVlUs1fQAGgNdqSXKj5mzLr71jFO5sytfNE7TM7SsodeuHbUzqYxv4fAAAArU1aYqK+fXu+yktLq53z8vZWTNduumDESPUYPbpR4x7bu0fbV37pqjIBwC3sDrve3P93rTy2UHaHvf4LauGQQ98c/1zz9j+ncke5CysEnAhA4DInUys/+AsLDVJURPVlXGryw6Zdumv28yotrdwE2Gq1aO5zs3XJpBEurxMA3OWznTmasyZNBSV1//BXVOrQ379N06c7c2rtc+BUsR5eflIb4nnyDwAAoLVK2LlDy1/+p7JTU10y3qGfftQ3b/63QQ8UAkBLc8ihJYkLNGfn/2l/9o5GX38we5de3PmQPouf36wQBagLS2DBZY4mJKtLJ+f6pyaTSbfdfLme+cf8Bl377Xeb9cCDL2ru87NlMTtzOavVoicfvsNt9QKAO3x7OF+bjxXqku6BGt7eVx3CbPKxmpRdVK6UnDJtSCjQVwfylFtc/Ye7lNxSfbozR1uTC7XjeBHbvgEAAJwDUuPjtej5Z9V91Cj1GT9BAWFhjR4jIzlZ21d+qaPbtrqhQgBwr4S8Q3p592OK8WunvmHD1C2oj6L92irEFm7ol1WSrpOFyTqYvUs7Mn7UiYLEFqoY5xMCELjMilXfa9L4YRXHt914mbKz8zTv7UWG2R21Wb5qg3wf9dbzT9wj08/r4JvN1dfDB4DWLrfYrk92ZOuTHdmNum7d0QKtO8qMDwDnroWffeaWvlfNnNmUcgDgrCkvLdWeNWu0Z+1aRXXsqLgePRXZoYOCIiPlHxIqi9Vq6FtcUKCskyk6eeSIThw8oJTDhyVmfQA4x50oSNKJgiSt1MKKNl+LnyRVbIYOnG2mzv2u4DssXMLf31drl7+hkOAAQ3tWdp727DuiOx54Vvn5hfWOc+P1U/XYg7+p9XyX/vwCDNfofd9LLV0CALSIj69t/JOpQE18AoPOyn2KcmtfMhBojAUPP9TSJeA8ZbFaZbXZVFZSovKy+h8QBFxt63XJLV0CALQI9gCBy+TnF+qJ5+ZVaw8JDtCo4f1k8/Jq0DjvfrhcT73wpqvLAwAAAACgRZSXlam4oIDwAwCAs4wABC61eOlafbhwVbPHeeu9JXpl3icuqAgAWg+zSQryMSs60KroQKuCfMwysdIfAAAAAACAW7AHCFzuL0++qvjE47r3juvk5+vT5HHmvLxA/n4+umXWdBdWBwBnj8kkDYj11bD2vurdxltxwV7yshgTj5Jyh45ll2p3SrF+TCxg83MAAAAPYjKb5e3rJy8f5+/GpUVFKi7Il4P9PgB4EKvZS4PCR6l/+Ei19e+kRzf/ts7+d/d+TDklmdqVuUlb0zbIwW/BcCMCELicw+HQvPmL9OnnqzVj6hgNHdRLsTGRKi8vb/RYT73wpvLzC9WpY5wbKgUA9xnV0U83Dg5RXHDdy//ZLCZ1DrOpc5hNM3oFKimrVO9uztLGBDaIA9D6vfLPuS1dAgC0KiaTSbHdu6t9n75q06WLgqPaGDZAl5yboGennlTKocNK3LVTxw8eYAN0AOesfmHDdU3nXyvEFi5JKrWX1ntNkFeIugf309DIcbo47kotPPqmDuXsdnepOE+xCTqA8xaboMMdfKwm3T82QqM6+jVrnO+O5Gvud+kqKefbNFyPTdABnK/YBB3u1LH/AA2ePkPBUVGNui7rZIo2L1mihJ073FQZwCbocI8Z7WdpcturDG2l9lL9fuN1dV730ICXFOPXvuLYIYcWxb+tb45/7pY6cX5jBggAAC7iYzXpySlt1D3Ku9ljjensr3B/q/664iQhCAAAQCtmtdk09pc3qmP/AU26PqRNtCb++nYd2bJZ372/QOWl9T89DQAtbXLbq6qFH01lkkkzO96i4vIirT+50iVjAqcRgAAA4CL3jYmoNfwoKnXoUHqxUvPKVVhilyT52cyKCrSqa7hN3tbqu6H3auOtuy8M15w1aW6tGwAAAE1jtdk05a57FNWxY7PH6jxosPxDQrTi368QggBo1ToGXqBp7W6o8VxeaXa91+eV5tTYfmXHW7Qve7vSi042qz6gKgIQtGpWq0XDh/QxtK3fuL2FqgGA2o3s4KfRnaove7U7pUif7szR5mOFstcykcNiloa199NVfYN0QaQxQBnfxV/rjubrx8RCd5QNAC2qsLBQ27ZvV8rJk/Lz9dPgQQMVERHR0mUBQIONmfXLWsOP0uJipSclKS8zQyVFRZIkm4+PAsPCFd6unaw2W7Vr2nTuoguv/4XWvPu2W+sGgOa4osPNMpvMhraThcn65Oh/tD+r/uX8/rn7r+oS1EvXdL5dcX4dKtptFh9d1/m3+veeJ1xeM85fBCBwm+FDemvG1DHq3DFOkRGhyszK1ZZt+7R42Rrt3R/foDECA/z1zuuPGdq69J/pjnIBoMlMkm4YGFyt/d3NWfpke7bqW8Cq3C59H1+gHxIKNGtQiK7pbxzrhoEhBCAAzgl5+fnasOF7paamKioqSqNGjVSAv3+1foWFhXrq6Wf037feUlZ25VOCFotFV15xhZ57+m+KjY09m6UDQKN16NdfnQYMrNaecviQdn79tY7t3SOH3V7jtWazWe379lXfiZMU2cEYoHQZMkRHt25W4q5dbqkbAJojyjdOXYJ6GtqOFyToxZ0Pq6i8oMHjHM7Zozk7HtR9fZ5U+4AuFe09QwYozr+jkvMb9tkhUB8CELiczeal5x6/W5ddOrbaucEDeujXN1+uL1as0+PP/keZWTVPeQOAc0mPNt7qGGZ8gm/x7hx9vL3+qb9V2R3O0CTIx6JLugdUtHcJt6lbhE0H00pcUi8AuJrD4dDr8+bpyaefUXp6ekV7UGCg/vynP+qBe++V2ex8SjAtLU2TL52mPXv3VhunvLxcHy9cqA0bN2rlsqXq0rnzWXsNANAoJpMGTp1arXnzF0u0/atVkqPuR2Dsdrvit29Xws6dGnTpNPW/eLLh/MCplxKAAGiVBoSPMBzbHXa9c+ClRoUfp5XYi/Tuwbl6cMCLMpssFe0Dw0cSgMBlzPV3ARrOy8uq+a8+WmP4cZrJZNKMqWP0xUdzNGhAj7NYHQC4x7B2xqWvcorsWrAlq8njvb0pUwWlxqcFh7WvvrwWALQWf37oId0/+w+G8EOScnJz9fAjf9X9s/8gyfmB39XX31Bj+FFVcnKyJl86zTA7BABakzadOiksNs7Qtvvb1dq+amW94UdVDrtdm79Yov3fbzC0h7dtp4j2HWq5CgBaTo/g/objvVnblFyQ0OTxUgqPaU/WVkNbl6BeTR4POBMBCFzqjluv1PAhvRvUN7pNuBbMe0JTLx7l5qoAwL26RRpnf6w9kq+i0ob/4numvGK7vjtifHqmW0T1NaIBoDV4/4MP9c+XX6mzzxv/+Y+Wf/mlFnzwgTb+8EODxk1OTtbfnnnGFSUCgMu1623cq7IoP09bli1t8nibPl+s0p/3CTmtfZ8+tfQGgJYTbAszHO/L2tbsMQ+csW9IlA9LocJ1CEDgMpERIbrz11dXa086dlLfrN2knbsPqajYuHyLzealuc/P1swZF52tMgHA5eKCvQzHu1KKaunZcGeOceY9AKA1KCws1COPP96gvq+8+qo+/OgjQ1tMTIxuveUWPXDfvbpk8sUVy2Sd9tob85SSkuKyegHAVSLPmJ1xZPNmlRYXN3m84oICHdm6xdAW0b59k8cDAHcJtoUajjOKU5s9ZkbxKcOxrzWglp5A47EHCFxm6sWjZbNVfkBXbrfrr0+9pv99+pUcP08BjggP0X2/u143XD1ZJpNJkmQxm/XcE3fLbi/X4qVrW6R2AGiOAJvxA7vUvLJmj5mSaxwj0IdnFgC0PstWrFBycrKh7ZqrrtKsG26Q1WrVJ59+qrfffVcOh0PfrjH+nPfLWb/Qv158Ub6+vhVt32/cqCuvuVaZWc5lBEtLS7VsxQrdesst7n8xANAIwW2iDMcphw41e8yUgwfVfWTlCgnBUW2aPSYAuJrVbHw4r+reHU1lMhl/3zX//Jkh4Ap8mgKXmTR+qOF43vxF+nDhqorwQ5LS0rP0yFOvafbDL6m4uLSi3WI264Wn7tP0KReetXoBwFVsVuMPZ/kl9lp6NlxesXEMXyvfsgG0Pl8sW2Y4vvnGG/Xu/Lc05ZLJmjRxgl575WX9afZsSVJZWZnKypzh7vBhw/T6K68Ywg9JGjlihP7x/POGtuUrvnTjKwCAprH5Gvdny8tIr6Vnw+WmpxmOffz9mz0mALhaYZlxueZQW3izxzxzjIKyvGaPCZzGpylwmbaxxidgFny0ota+i5eu1e33/k0FhZVLvFjMZs15+n5NmzzabTUCgDuc+WxKefPzD5WWG/cQ4QEYAK3R9u2V6zV7eXnpsUf+Uq3PH/8wW2FhxrWi//D7B2Sx1Py04LXXXG3of/jIERdVCwCuY/UyPgFdUtj8JVCLC4wfKlq9vZs9JgC4WmrRccNxj9CBzR6zR8gAw/GpIpZAhesQgMBlIiMr1wDMzy/UiZS0OnpL6zdu169+94Ty8wsr2iwWi1589gHQtUS4AAAgAElEQVRdOpmN0QEAAFq7k6mVaz537NBBMTEx1foE+Ptr4ID+hrbRI0fWOqbValX/fv1qvAcAtBpnPJ1it5c3e8jyMuMSqCaegAHQCsXnHjAc9wjurzj/jk0eL8avfbUAJCGv+csKAqcRgMBl7PbKR56LiksMS1/VZtPWvbr93qcNm6NbLBa9+MzvNWVS7b8YAwAAoOXl5uZW/DkiIqLWfpFnnAsMDKxz3IAqy75UvQcAAABa1vb0jYZjs8msX3a9R94W31quqJ3N7K1ZXe+W+Yw9QM68B9AcbIIOlzmZmqmATs51UMNCgxQVEarUtMx6r/th0y7dNft5vfbi/8nLy/lP0mq1aO5zs/XoM2+4tWYAcIch7XyVXdS8pwCDfZq/kRwAuFt4eLhOnDghSUpMSqq1X0Ki8dzJkyfVtm3bWvufSqucSRwe3vx1pQEAAOAaR3L3KSnvsNoFdKloa+vfSXf1ekRvHZijzOK6V4Q5LcgWqlu6PaAOAV0N7cn58TqSs9elNeP8RgAClzmakKwuneIkOafq3nbz5XrmH/MbdO23323WAw++qLnPz5bF7Ex9rVaLnnz4DrfVCwDucsfIsPo7AYAHiIluUxGAHD9+XFu2btOggcYlDBITk7Rl61ZD25erVum2X/2qxjFzcnO1fUfl3iJtoiJdXDUAuF67Xr1VlNe8TXt9AgJcVA0AuNfihHd1V+9HZaqyI2anwB56cMBLWp/ypX5IXa2ThclyqPrqMFG+cRoeOV4XRl8iP2v1r3tLEt+r8TqgqQhA4DIrVn2vSeOHVRzfduNlys7O07y3F6m0tKyOK52Wr9og30e99fwT91SsdWo2s+YpAABAazV61Cht2bpNkuRwOPSHP/9ZXyxaJD8/5xIIJSUlun/2bBUXFxuue/aFF3TlzJkKDQmpNubcf/5LhYWVe8T17dPXja8AAFxj5DXXtnQJAHDW7M/eobUnlmlczDRDu6/FT5PiZmpS3Ezll+XqVOEJFZYXVJyL8IlWgFdQreOuP7lSuzO3uLV2nH/YAwQus3L1D8rKrnzixWQyafY9s7Tx67f07huPy9+//rUAP/18tR5/dp47ywQAAICLTJs61XC84fvvNXDoUP35oYf00F8e0eDhI7RsxQpJzn09An9+ujkp6ZimTp+uHTt3VlxbXFysF+bM0TPPP28Y89KpU9z8KgAAANBYn8a/pW3p39d63t8aqI6BF6hnyAD1DBmgjoEX1Bl+7Mr4SR8f4TNBuB4zQOAy+fmFeuK5eZrz9AOG9pDgAI0a3k82Ly/lq7CWqyu9++FyWa1W/eWPt7qrVAAAALjAuLFjNWTwIG3aXPmkXkJioub+6+VqfS+dOlV2u12ffPqpJGnb9h0aNmq0OnXsqKCgIB05ckS5ZywfExYaqosnTXLviwAAAECj2R12vbn/75re/heaFDez2kbmDeWQQ6uPL9HihHdkd9hdXCVAAAIXW7x0rYYN7qPrr7q4WeO89d4ShYYE6a7br3ZRZQDgPq+sT2/pEgCgRZhMJv39ued08dRLVVpaWms/q9Wq399/n7KysioCkNOOxsfXet0jDz+sAH9/l9ULAAAA13HIoSWJC7Qj4wfN6PBLdQ/u16jrD2bv0pLEBTqau99NFQIEIHCDvzz5quITj+veO66Tn69Pk8eZ8/IC+fv56JZZ011YHQC43pf7m7fhJQCcy0YMH675//2Pbr71NpWVVd/3zWQy6aV//F0D+veXJN184416+9136x137Jgxuv02ZgQDaJ3W/+/Dli4BAFqNhLxDenn3Y4rxa6e+YcPULaiPov3aKsQWbuiXVZKuk4XJOpi9SzsyftSJgsQWqhjnEwIQuJzD4dC8+Yv06eerNWPqGA0d1EuxMZEqLy9v9FhPvfCm8vML1aljnBsqBQAAgCtcNXOmunTurMeefFLfrlmroqIimc1mDR82TI898heNGzu2ou8r/5yr0rJSvf9B7R8ejh0zRp998rGsVn5dAdA67d+wvqVLAIBW50RBkk4UJGmlFla0+Vr8JKliM3TgbDN17neFo6WLAICW0Pu+l1q6BABoER9fG9bSJcCDlZeX68SJEwoNC5O/n1+t/ZYuX65XX39d361br+LiYpnNZvXp3Vu/vvVXuvWWWwg/4BYLHn6opUsAgBax9brkli4BAFoEv1UAANAKdAqzyVJlz7hDaSUtVwwANIPFYlHbtm3r7Tdt6lRNmzpVDodDGRkZ8vX1k5+f71moEAAAAMD5ggAEAIBW4MkpbRTkU5mAXPZmQgtWAwBnj8lkUnh4eP0dAeAc4u3vr+CoKHn7+cnm6yurzVtlJSUqLSpSflamctLSVFpU1NJlAoDLWEwWlTtqX/7e1+KnMJ8ohdoiZDFZlF2aqeP5CSqxF5/FKnE+IgBBq2a1WjR8SB9D2/qN21uoGgAAAAAAahYUGaleY8Yp5oILFBodLZlMtfZ1OBzKOpmi5L17dWTzJqUlJZ3FSgHAdQaEj9TY6Kmymr00Z+eD1c53DeqtKe2uUbegPjKbzIZzpfZS7cncrJXJC5WYd/hslYzzDAEI3Gb4kN6aMXWMOneMU2REqDKzcrVl2z4tXrZGe/fHN2iMwAB/vfP6Y4a2Lv1nuqNcAAAANNLCzz4zHF81k5/TAJx/vP39NfLqa9Rp4CCZ6gg9qjKZTAqNjlFodIz6XDRBKYcPadPni5Ua37DflQGgpXlbfHVb9z+qZ8gASaoWYFhMVs1o/wtNiLtcJtX8tdHL7KX+4SPUL3y4vk5epM8T3pNDbFcN1yIAgcvZbF567vG7ddmlY6udGzygh3598+X6YsU6Pf7sf5SZldMCFQKAa71xTVyzxwjwNj4JU9OYv/mYjQsBtC6zbrrZcHxVbu0ByJat2wzHgwYOcEtNAHA2hcbG6uLbf6uAsLBmjRPdpaum3feAtq9apS3Ll0oOPgAE0HrZzD66u9ej6hh4Qa19ftH1Tg2LHN+g8UwyaVLcTAV6Beu9Qy+7qkxAEgEIXMzLy6r5rz6q4UN619rHZDJpxtQxGjqol+7509+1Zdu+s1ghALhedKDrv526Y0wAaEmjxhofjinK5UEYAOc2n8BATf7tHfIPCXXJeCazWQMuuUS+QYFa/+EHLhkTANxhartr6gw/xkRPaXD4UdXwqAk6mntA60+ubE55gAGfrsCl7rj1yjrDj6qi24Rrwbwn9PuHXtLyVRvcXBkAAAAAAK4z+trragw/slNTVZiTo4DwcAWE/nze4dCPixcp43iy/IKCFRoTo9ju3RUe17baXiHdR45S+rFj2rfuu7PxMgCgUcK8I3VR7GXV2o/lH5HknB0yvf0vqp1PLzqp71O/0fGCeDkcDrXxjdOIqAmK9mtn6HdZh19qU9p3Ki4vdM8LwHmHAAQuExkRojt/fXW19qRjJ3XwSJIiw0PUrWt7+XjbKs7ZbF6a+/xs+fzVW58tWX02ywUAAAAAoElCY2PVoW8/Q1tmygl9t2CB0hITnA0mk9r16qULb5gl38BADb3scm38dKH2fre2cpzoGA2ecZna9+ljGGvI9Bk6umWzigsK3P5aAKAxBoaPksVkqTh2yKF3DrykTWnO0LZn6AD5WQMM12xM/UYfHXlDpfaSirZdmZu0+sQXuqz9LE2Mu6Ki3c8aoCERY5gFApchAIHLTL14tGw2r4rjcrtdf33qNf3v06/k+Hn90ojwEN33u+t1w9WTKzaHs5jNeu6Ju2W3l2vx0rU1jg0A55rtx4uUklvW4P4XdfWXzVL59N/6o/yyCwAA0Fp1HjTYMHMjNz1NS196USWFVZ5YdjiUtHu3lv1rri6b/Ud5eXtrxJVXKfPEcaUcOiTJGZp8Ne91DZwyVQOnXlpxqc3XV12GDtWeNWvO2msCgIboEzbEcLwlbV1F+CFJ0b5tDecP5ezRB4f/LbvDXm0su6NcixLeUah3pAZFjK68R+hgAhC4DAEIXGbS+KGG43nzF+nDhasMbWnpWXrkqde0aesePfPo3fL2dgYmFrNZLzx1n8rL7fpixbqzVjMAuEu3CJt+TCrQF3tyG7SH5cgOfoYA5LnVp9xYHQAAAJojpls3w/FPixcbw48qsk+e1M6vv9KgS6fJZDZr5NXX6rNnnzb02frlCrXp3EWx3btXtLXt2YsABECrE+YdaTj+6ZTx61Sod4TheOWxT2oMP6pafuwjQwAS59+pmVUClcwtXQA8R9vYKMPxgo9W1Np38dK1uv3ev6mgsKiizWI2a87T92va5NG1XgcArdFzq08pu6jc0OZnM+v24WF6blq02od61XIlAAAAzkWB4ZUf8NnLy5W4c0ed/Y9u3VLx59CYGEV1OuPDPYdD+zYYHwYMi41rfqEA4GKBXsa9j9KLjQ/vFZcXGY4T8g7VO2ZKQZIKy/IrjgO8gptRIWBEAAKXiYys/AKYn1+oEylpdfZfv3G7fvW7J5SfX/mUjMVi0YvPPqBLJ49yW50A4GrrjxbodwuP68v9edXO9Yjy1tzLY3TzkFDDDA8AAACcu7z9/Cr+XJibK7u97qeb8zIzDcdtOnWu1ic75aTxHv7+zagQANzD4TA+/OdlMj7wl15k/FrmUAOWRJBU5qi6hHTDrgEaggAELlP1B76i4pKKfT/qsmnrXt1+79MqKq7cBMlisejFZ36vKZNGuqVOAHCHvGK7XlmfrsdXpupUnnHvD4vZpKv6BenlK2PVP9anhSoEAACAqxTlVz6p7OPvb9gPpCZVAxNJ8g8Lq9bHy8fbcFxWUlKtDwC0tOxSY6DbLqCL4Xhn5k+GJa/a+VcPfM8U5BWiAK+giuPc0uxmVglUIgCBy5xMrfwCGBYapKiI0Dp6V/ph0y7dNft5lZZWfmBotVo097nZumTSCJfXCQDutPlYoe789LgW7siptvdHdKBVT0xpowfGRijIh2/BAAAA56qCrKyKP1u8vBTTpWud/eO69zAc28vKqvWJ7GhcFqsghw8AAbQ+Zy5pNS7mUllMldtMZxanaUfGDxXHE+OukEl1h8TjY6cb+hzPj3dRtQABCFzoaEJyxZ9NJpNuu/nyBl/77Xeb9cCDL6q8yiwSq9WiJx++w6U1AsDZUFzm0NubMvXnpSlKyio1nDNJuqirv16eGasJXVnWAAAA4FyUnWpc4mXw9Bkym2v+iMXLx0f9L7nE0JaXmWE49gkIUN+JkwxtGceSBQCtzZY0435FsX4dNKvrXbKYLBVtHx2Zp5wS54PSvUIGanr7X9QaggyJGKNJcTMNbfuzd7q4apzPrPV3ARpmxarvNWn8sIrj2268TNnZeZr39iLD7I7aLF+1Qb6Peuv5J+6R6efpw2Yz6+UDOHftSy3WvYtO6Io+gZo1KETWKl/TQnwtun9shCZ2C9C/N2TUMQoAnDsWfvaZW/peNXNm/Z0A4CxK2LFDXYYMrTiO6tRJE267XeveX6Ci/Mp94QLCwjT+5lsUFBFpuP7k4SOSnA8PxnbvrlHXXCe/oCBDnyNbNrvxFQBA0+zO3Kzk/HjF+XesaBsaOU5t/TtpWdL/tCtzk3JLs/TvvU/qtu5/VKRPjCa3vUqdg3po9fEvlJh3UOUOu2L92mtUm4s1KGK0Yfzi8kL9eOrbs/2y4MFMnftdwa4ycAl/f1+tXf6GQoIDDO1Z2Xnas++I7njgWcOG57W58fqpeuzB39R6vkt/fgGGa/S+76WWLgHnkU5hNt1zYbi6RtiqnSsqc8jL7Nwr5LTL3kw4m+XhPPPxtdXXHQeawicwqP5OLlCUm3NW7gPPt+Dhh1q6BHgIs9msqx5+RIEREYb28tJSnTh4QAU5OQoIC1N0127VZoakJSbq83+8IEnqO2Gihl5+RbXxs1JStOj5Z2UvL692DmiKrdcxowiu0z6gi+7v87S8zF7VzhWXFyox77DSilJkl12j20xu1NhLEz/QimMfu6pUgCWw4Dr5+YV64rl51dpDggM0ang/2byqf1GsybsfLtdTL7zp6vIAoEUdzSjRH784oXk/ZKiozPjsgY/VZAg/AAAA0LrZ7XZt+PgjOc7Y9M3i5aW2vXrrghEjFXtB92rhh8Nu10+LF1Ucm2pYNstut2vtgvcIPwC0Wol5hzX/wByV2kurnfO2+KpbcB+NbDOp0eHHnqyt+vLYJ64qE5BEAAIXW7x0rT5cuKrZ47z13hK9Mo8veAA8S7ldWrI7V/d+dlzbjxe1dDkAAABohuR9e7Xp88WNumbTF0t04tDBWs+Xl5bq2/lvKS2R2cAAWrcdGT/on7sfUWrhcZeM9+OpNfrvvuflEIsVwbXYAwQu95cnX1V84nHde8d18vP1afI4c15eIH8/H90ya7oLqwOAlpeSW6a/rjipi7r667bhYQr05nkEAACAc9HOb75WQU6ORl59jWy+vrX2Ky0u1vr/faAjm2vf1+NUQrx++HShUuPj3VEqALhcfO4BPbv9AY1qM1kTYmcozDuq0WMk58fry2OfaGv6BjdUCBCAwA0cDofmzV+kTz9frRlTx2jooF6KjYlUeROm7z71wpvKzy9Up45xbqgUAFqOQ9I3h/K1NblIvxkZptEd/Vq6JABotFf+ObelSwCAFnd40086tnePuo8arfZ9+iosNlZWm01FubnKSU9XwvZtOvDDRhXn51e7Njc9XTu//lrJ+/fq+IEDkoMnnwGcW0rtpVpzYqnWnlimjoHd1TOkvzoEXqBIn2iF2iJkrbJPSKm9RAVleUopPKYjOXt1IHuXDufsYdYH3IpN0AGct9gEHa1JVIBVVbcBSckta7li4PHYBB3A+YpN0AGcr9gEHS3FavaSzeytEnuxymrYMwRwN2aAAADQCqTmEXgAAAAAADxLmb2U4AMtikXHAQAAAAAAAACAxyEAAQAAAAAAAAAAHocABAAAAAAAAAAAeBwCEAAAAAAAAAAA4HEIQAAAAAAAAAAAgMchAAEAAAAAAAAAAB6HAAQAAAAAAAAAAHgcAhAAAAAAAAAAAOBxCEAAAAAAAAAAAIDHIQABAAAAAAAAAAAehwAEAAAAAAAAAAB4HAIQAAAAAAAAAADgcQhAAAAAAAAAAACAxyEAAQAAAAAAAAAAHocABAAAAAAAAAAAeBwCEAAAAAAAAAAA4HEIQAAAAAAAAAAAgMchAAEAAAAAAAAAAB6HAAQAAAAAAAAAAHgcAhAAAAAAAAAAAOBxCEAAAAAAAAAAAIDHIQABAAAAAAAAAAAehwAEAAAAAAAAAAB4HAIQAAAAAAAAAADgcQhAAAAAAAAAAACAxyEAAQAAAAAAAAAAHocABAAAAAAAAAAAeBwCEAAAAAAAAAAA4HEIQAAAAAAAAAAAgMchAAEAAAAAAAAAAB6HAAQAAAAAAAAAAHgcAhAAAAAAAAAAAOBxCEAAAAAAAAAAAIDHIQABAAAAAAAAAAAehwAEAAAAAAAAAAB4HAIQAAAAAAAAAADgcQhAAAAAAAAAAACAxyEAAQAAAAAAAAAAHocABAAAAAAAAAAAeBwCEAAAAAAAAAAA4HEIQAAAAAAAAAAAgMchAAEAAAAAAAAAAB6HAAQAAAAAAAAAAHgcAhAAAAAAAAAAAOBxCEAAAAAAAAAAAIDHIQABAAAAAAAAAAAehwAEAAAAAAAAAAB4HAIQAAAAAAAAAADgcQhAAAAAAAAAAACAxyEAAQAAAAAAAAAAHocABAAAAAAAAAAAeBwCEAAAAAAAAAAA4HEIQAAAAAAAAAAAgMchAAEAAAAAAAAAAB6HAAQAAAAAAAAAAHgcAhAAAAAAAAAAAOBxCEAAAAAAAAAAAIDHIQABAAAAAAAAAAAehwAEAAAAAAAAAAB4HAIQAAAAAAAAAADgcUwOh8PR0kUAAAAAAAAAAAC4EjNAAAAAAAAAAACAxyEAAQAAAAAAAAAAHocABAAAAAAAAAAAeBwCEAAAAAAAAAAA4HEIQAAAAAAAAAAAgMchAAEAAAAAAAAAAB6HAAQAAAAAAAAAAHgcAhAAAAAAAAAAAOBxCEAAAAAAAAAAAIDHIQABAAAAAAAAAAAehwAEAAAAAAAAAAB4HAIQAAAAAAAAAADgcQhAAAAAAAAAAACAxyEAAQAAAAAAAAAAHocABAAAAAAAAAAAeBwCEAAAAAAAAAAA4HEIQAAAAAAAAAAAgMchAAEAAAAAAAAAAB6HAAQAAAAAAAAAAHgcAhAAAAAAAAAAAOBxCEAAAAAAAAAAAIDHIQABAAAAAAAAAAAehwAEAAAAAAAAAAB4HAIQAAAAAAAAAADgcawtXQAAAAAAAAAAwKioVNqcIK05KO05IR3PkhwO57moIKl7G+nCrtKITlKQb/Pvl5ghfXdQ+uGodPiUVFDibPe2Sh0jpCEdpDFdpQvaSCZT8+93WmqutOGwtP6QdPCUlF3gbLdapHahUv+20tgLpL6xzrbGvJ5/rZa2JEpWszT+AumOcVKon+tqT0iX1h1yvmeHTkmFp98zL6lTuDS0ozS2m9Q1ynX3lKRTudL6w9L3R6QDJ6WsAuffSY9o6bdjne9ZXRwO6Uias/af4p21F5c6z/l4Oesd0kEa313qEOba2s82k8Nx+r8NAAAAAAAAAKAlZeRL/1knzVsnxadLZeW19zWbpDZB0rWDpXsnSp0jGncvu8MZerz4lfTNfim3qO7+vjZpaAfp7oukmQOdwUJT7UyW5qySPt8hZRZUhjs1sVmlntHS78ZJvxwu+XvXPfa2JOmyf0tJGcb2YZ2kJXdJUYFNr7vcLn29T/rnN9KaA1Jecd39/WzS8E7SfROlaX2b955tP+a87+Ltzn8nNb1nIb7SB7dLU3pXP1dWLi3b5QyGNhyuDLlqE+DtDNnunyhd3Mv57+1cQwACAAAAAAAAAC3M7pDe/1F66DMpKbPx14f4Sn+YLD0wyfmhe33i06U/LXR+mF5S1rh7mU3S6K7SP6+TBrRr3LVZhdIji6U319f/AfyZTCapV4z0j6ulyb1qnolSWi5NnCN9d6jmMe4cL71yQ+Pue9rRNOn+j6RlO6Uye+OutZilcd2kuddLfWIbd21GvvTokoa/Z10ipc0PS8FVZgbtPeGs/et9zhCnMaxmZwAy9zqpm4tns7gbAQgAAAAAAAAAtKD8EumeD6R3Njb+w+mqTCbnUk/v3irFhdTeb+Ue6bZ3pGNNCFqqCvaVXrpWumVUw/rvPi5dP0/adbx59/W2Sg9dKj04RfI6Y1msQ6lS3yecS4jVpH2YtPfxhoVEpzkc0vLd0m1vSyk5Ta9bkkL8pH/fIF0/tGFLie1Mln75prTjWMPvYTJJK+51hkQOh/TJFul3C6T0/KbXLUkRAdJ/b5Iu69+8cc4mNkEHAAAAAAAAgBaSXyJd94b01obmhR+S88Pu1fulS+Y6ZyvUZNE26Zo3mh9+SFJ2ofTbBdLfV9bfd1uSdPFLzQ8/JKm4THp8iXTf/5wzPqoqLK09/JCcy3xlFzbufh/8JF39WvPDD8m5X8fN86V/r6l72S/J+Z5N+1fjwg/JOW56nvPPr62Vbnyz+eGHJKXlSde+Ib27sfljnS0EIAAAAAAAAADQAsrt0q/fkZbudO24p2daZJzxofeaA9It86WcRgYAdSkpkx5eLC34ofY+8enStJelE9muu6/dIb2+VnpqmdTYJY4asybSN/uk377nDFZcpbRceuAjaeGW2vscOSVd8WrTlkOzmqULoqXPtkqzP3YGRq5SXCbd/q701V7XjelO1pYuoDlOpaYpNfWUsnNyZJJJAYH+6tSpgwICAtx63+++2yBJGjx4gPz8/Nx6r5rs3r1XGRk1/8v38vJSUGCgOnXuKF9fH7fcv7bX39LvCwAAAAAAAHAueeVb6X+b3DP2j/HOPT7euNG5Z8fJHOk37zV+9kNDlJRJd38oDWzv3KOjqtJyZ+hyPMv197U7pOdWODdmn97P9eOn5Ei3vlP/RudNUVou/e59qX+76vtqlJQ7Q4aE9KaNfVF35wbmd77v2uDmtOIy6aa3pK1/kdoEuX58VzonA5D9+w5q7dr1SkqqPvfHZDKpc+dOmnzJBMXERLvl/qtWfiNJ6n5Btxb5oH/b1h3av/9gnX0sFov69e+jqVMny8fH26X3r+31u+N9KSkp0VNPPi9Juv+BOxUWFuaScQEAAAAAAICWlJQp/WVx42YjNNaCH6V7J0h946Qnl0oHTrrvXlkFzlkNy+91Bi6nzfvOOfPEXYrLnEHPhV2d+2u4ikPSXz9vegjREGl5zto/+a1zk/TT/rtO+rYJ75nJJI3pKv3nJunvq1yzZFdtTmRLL34lPXul++7hCudUAGK3O7Rq5dfasGGjHA7JbDYpLi5OYWGhcsihU6fSlHIiRYcPH9Hrrx3V5ZdP18BB59COLI3Url1b9eh5QcWxvdyunJwcnTqVroSERG3dsl3Hj5/Qb37zK3l5ebVgpQAAAAAAAACqema5cz+K+ljMUr84aewFUkywc1mr749IPx6tf2mjolJpU4Jkszo3WG+IiABp3AXOe1rM0r4Uac1BKSmj/mu/2uvcYH1Kb+dxQYn09PKG3TfAWxrTTRrSwblB+ZE0Z3ByMLX+kGhvinMPlQcmNexeDbH3RMP3uogMdG4+3ydWMpul/SnS1/satuTXkh3Sd4ec10tSTpEzvLA3IBgL9JFGd5GGdJRCfKUB7aRRnZ1/32sbGKDEBEvju1fO3NmV7NxHJjW3/mubEtKcbedUAPLt6rVav975r27AgH6aOGm8goONc2zS0zO0fPlKHdh/SIsWLVFAYIC6devSEuW6XWxsjMaMGVXjucTEY3p7/ns6mZKqNWvWadKki85ydQAAAAAAAABqklnQsECiS6T04rXS5F6Sd5VPcsvt0pZE54yL9YfrHsMh6b/r6w9bvCzSb8ZID02VYkOM5zLyK/fbKCipfQy7w7ms1+kA5KPNUnI9S1+ZTNIVA6RnZzqXgjJVmT2SXyx9vFn689nHHy8AABmbSURBVKf1fyD/3/XSb8fW3acxXl9b92bqknOvjbsvkv48RYo+Yymo9HzpX99Iz31Z9zjldunVNdK4bs7X/tnW2jewP81ski7vLz1zpXRBG8l0xvlye93XV9UrRnp0utS9TWVbSo40Z5X00tfVN5mvyp2zl1zlnAlAEhOPae3adZKkiZPGa9y4C2vsFx4eplmzrtNH//tUu3fv1RdLluu++++U2Vzzfu85OTmKj09Ubk6evGxeiogIV6dOHWQynfnPpnGaMu7pPTSGDx8qLy8vxccn6MSJFJWXl2vEiGHy8mr4X1f79m01ZuxoffP1Gm3buqPWAKS8vFxJScnKzMhUXn6+/Px8FR3dRrGxsWrmW1CjnJwcJcQnKScnV2azWbFx0Wrfvl219yU/P19btmxXeXnl/7BNP22Vr5+vJGnw4IHy+/nPTRkfAAAAAAAAaCmLtzk/3K9LrxhpxX1Su9Dq5yxmaWhHaek90qz/1r6JurdV6hsrPf9l3feymqW/Xy3dNd64FNNpYf7S/02ResZIv/hP3ftKfLVXOpXrnEny4Y9131eS7rlIev4qY8Bzmr+3dMso5xJe01+ue0mnvSekbUnOWRHNlV8sLdpWdx+L2RlO3TVeNX6OGu4vPTZD6hUr3fRm3bN1Vu6RMgqc17z/Y93BgsnkDF1qe89O1zamm7S9+g4S1Xy9Txr5rPT7i53LpQX5OMOc5650BlJ3vi+V1RKojO9e//gt7ZwJQFZ/s1Z2u0OdO3fU2LE1hx+nmUwmTZs+Rfv27VdmZpbi4xPVuXNHQ5+iomJ98cVy7dq5R3a78W8wNDREU6dONiwv1VDNGff0HhrdunXRks+XG/Y4GTx4QKMCEEnq3LmTvvl6jXJyclVcXCJvb5vh/I8/btI3X69RQUH1nY/i4mJ19TVXKDzcNXtuFBeXaOkXK7Rz5y6VnxFBhoWF6bLLLzX8HeXm5FW8H6etW/d9xZ979uhuCEAaOz4AAAAAAADQUlbtrfu8j5c0/5aaw4+qgn2leTdKE+c4l4GqymSSbh3tXA7pyKm6x7luSO3hR9XxLu/vnO3w2JLa+xWVOpeumt5PWnuo7vsO6+jcQ6K2D/JPG9xBeuk6Z9hT2+wGu8MZvswcWPdYDbE3xblHS11uGlF7+FHVtYOlLQnOmSC1ySqQNh6RRnVxLllWl2Edpb9dUf979sAk6fPtUmIDli7LLHDud/LhT9IzM6VL+zj/Lfx6jPO9ePGr6td0ipDun1j/2C3tnAhACgoKdfToUUnSyFHDGzQzISDAX7fedrNKSkoUFmb8SlFUVKR5b8zXqVNpstm81Ldvf0VGRaioqEgHDxxScvIJffDBR5o2faqGDRvc4DpdNe7iRUuVmnpKI0YMVXR0G5WVl8vLy1Zr/9pVRoVnvmerv1mr1avXSpJiYqPVu1dP+Qf4KTsrR5s3b1Vy8nG9+84HuvOu38hma97+IUVFxfrvf97WyZOp8va2acDA3oqKilRRUZH27tmvlJSTeuftBZo16zp1u6CrJCk0LFQ33zJLZaVlWrDgf5KkK6+6TIGBgZKkoCpLnzVlfAAAAAAAAKCl1Pch9xUDnPs6NERMsPTFPdLsj6W1B51LXUUHOcOPP09xLiFV2xP8kuTrJf1pSt3hx2kmk3PGxr+/rXtJqq1JUqdIqbCO5bIk6cGpzvs3xFWDpBe+lDYn1t5nS6JrApCtiXXPwvC2Sn+ZVn/4cdofL3Euc5VTxzJkmxKkNkFSTvVn1SuYTM6ZOAHe9d+zc4S09G7pvo+kb/fXv6eIwyHtPi5d+ap0+QBnyNK9jTMQiQp01p+SI/l5SSO7SP+83vlvr7U7JwKQ1NRTstsd8vLyUteuDd/Po127uBrbly1dqVOn0hQWFqZf3TpLwcGVf1MTJozT2jXr9dVXq7Vi+Up17NBeUW0iG3Q/V42bmZmlu+6+XWFhzZt9cejQEUlScHCQbLbKAKWwsFA//rhZkjRu/IWaOHG84brhI4bo5X+9royMTO3evUcDBzZvI/kVK1bp5MlURbWJ1E033aCgoMrwYvz4MVq29Ev98MMmLVr0he5/4G55eVnl7W1Tly6dVFJS+VWyffu2Nb4nTRkfAAAAAAAAaCkJ6XWfv7x/9X0d6tI5Qlp4hzOUyC92LqUU4uc8F1/PfhLd2ki9Yxp+r1A/5ybpH2+uvU98ev33DfSRJvVs+H2tZmlG/7oDkIQM1+xLEV/P30/fOOd73lDh/s73bMmOuu+ZlFF3WBXhL13YiOe7+8RJy+91zux4bEn9e4tIzvsv3OJcGmv2xc7A6/+mSL8bJ6XlOQOr6GDnPiTnggbkei0vN8cZJwYGBsjSkCiyDjk5Odq+3bko3pVXXWYIKU4bO260unbtrLKycm34/oezPu5FE8Y2O/xITDym9T8vGTVgYD/DOV9fX/3hj/fpV7f+UhMmjK92rb+/v7r3cC7TlXzseLPqyM3N1bat22U2m3X99VcbwgnJuVzZ1EsnKzwiTLm5edqzu575f2d5fAAAAAAAAMDV6toPQpI6N+x5bAOzyTnzo0tkZfghSVl1zCiQnPs8NOYjV5NJ6hldd5+0vPrv2yHMudRXY9R337xiqaie97YhsuupvXs9ddSka1Td5/OLpVN5dfeJCTH+3TaEzeJcrmvj/zmXxfJv4EJDWQXSI4ulEc86N2YP8Hb+24oNOXfCD+kcCUDyCwokqcZNrxtrz+79cjgcio5uo/bt/7+9O4+usr7zOP6+NwlJgLDvhCXsm4CKtG5YoS5IVdyq1WpFrWNHrTPdp6ftcdqe9rSd1mWmVq3WpdNirdaqiCuKonRBEEUiyCIBQiCBIKuRJPfOHz8jRnKfewM3IJn365wchfvc3+/JcyF//D58v9/ilNcd80GLqtKlyzJKDbO5bnFxn/QbAhs2VDBv3vwPv1588WUef2w2v7v799x9133U1tbRq1dPJk06fp/35uTEKSkZ2GSZVn19gj3vh8qLpuaDNEdp6XISiSSDB5fQrVvXJq+Jx+MM/aCyZ/XqNZ+o9SVJkiRJkqSDLRFRBdBcuWlOgGvrm79mVJUChJAk3b7p1tivfUlfOZNIpm8HlU6qOSTp9k2nLs1n0SYn/XNNpUcR/PJ8ePEbofIm0xBj2Ua44E4493Yordi/vQ+lw6IXULu2IdY60MN4gOqtYepLcXHT7bEaNLTPqqmpYffu3bRrFx2tZXPdvNzMos9169Y3GpT+UTk5ccaOHcvUM04lLy/1etXVWylbs5bKyiqqq7eyfft2Kis3U1tbC0DyAGvGqreE57Jnzx7mzZuf+rqtYarQtm3bPlHrS5IkSZIkSdnWtg3sjpiPsbQCPj2oeWvuej8cVlfuCNUGg7qFyo50FQPLN8GeujAsPRNJYEl59DU9i8KA9ihrtoR5F13aZbYvwOJ10a93LAxf+bmpq2x21IRWUMURA+a7tY/eZ0l5aLWV6QwQgDeaPsb9ULrntb+218BbFaEiZ2h3OKp/mA3ywAK4cVZmbbHqE2Gg+tzlcMOU0Bqrpe432w6LAKSoQxh8vWPHDurrEwfUBmv3rhCiFBRGT4opLNz7CWYSgLTUulF69+nFkMF7fxLGc+K0a9uODh2KKBk0oNFeH7dmzVqeeXoO69c3/mlVWFhA3769SSahrCyioV6Gdu0K1TtlZesoK0vzEwp4ryZiEtAhWF+SJEmSJEnKtiHd4Y2IEOGhhXD5sZm3pnplJVw7MxzMJ5KhtdT08XDrhWGvKKur4B/vwIlDM9trw7sw9+3oawZ1D621otTUwl8Xh2HtmXivNhzCRynpBl3bh9Bn0/amr0kkw+F/1Pebbr7H8o2weD0c2S/6ugZl1fD3d6KvGbwfbc/SeWop3PAnWFEZApt2+XDJRPj5eXDZsTB1DPz0KbhzXgjQ0tleAz96Ah5cCHd+ESZl+GfmUDosApAePboTj8eora1j5cpVDB+e2ZNdt66cPXv20LVrFzp1CjM5Gtpo1bwX/Ym+997eg/K2bdOHFC21bpT+/fpxyqmTm/2+TZsquf++P1JXV0ffvr0Zf+RYiov70rVrFwoKCgCYM2duVgKQhhBm+PChjB8/Ns3V6QOkg72+JEmSJEmSlG0TS6IDkGffgtlvwpnpj7t4qwLOu6PxgX9NbTjk370Hfnx2dEVEbT388AmYdV24LkoiGQ7Ad0T8G+NYDCYOhGE9Q5VA1DyNnz4VgppMqkDueAneroy+5lMl0KVt2DtVAALwv/+Aq05MHWAcPSC0iErVtqouAd99BB6/Ln1LqkQSfvAovBdR8QOh4qf0wMYxN7JwLVz028bPf9f7H4Qde+C+y6H7B22xLpkI33kEnl+WWauu5Rvh7Nvgb9+GEfsxD+VgOiwCkLZtCykpKWHVqtX8bf4/GDZsaNryop07d/G7u++jvj7B5TO++GEA0rlLqG0qL4/+09RQGVFQkJ9RUNFS67aERYsWU1dXR79+xVx51WXE4/v+LW1ogXWgOnfpBIQ5HKPHjMzKmgdzfUmSJEmSJCnbTh8Nd72c+vX6BFz9e3jsWjhmYOrr1lbDJXenPux/YkloVzSiF7we0YJpzjL49l/gp+dAYYpu+vUJuPX56PuGMCz7hCGQlwOnjISHFqW+dmUlXH4v3DcDOqc4Kk0mQ6XI9x8lclZzXk6YbRGLwdTRMG9F6mu318Ald8Gj1zZdqTK4ewhRlm1MvcbTpfDNh+Bn56ZuH1ZXD794JgQuUXp1CGFMNgOQW+akDp8eWBC+x+9PCwHO0QNg9vXw54Xwg8dgVVX69d/dDTfPgdsvyd49t4TDYgg6wMmTJxGPx1i9eg3zXnol8tpkMsnsJ56mvj5Bp06dGDiw/4evjRo1glgsxsaNG/dp//RRC/65EICRo0Zk1MutpdZtCQ3tuoqL+zQZfiST8M7qsqzsNWrUcGIxWLlyNTt27Eh5XVnZWqqqohvOJer3/QmXzfUlSZIkSZKkg+GMI8K/vo+ycTuceks4QK/82LHXtvdg5gI46b/gtYiu8PWJ8K/1L5wQvVcyGcKN6bfBq2VhJkiDuvpQZXLF/fDNh9MPAJ8+HopCkxku/XT0tQCPvwGTfwXPvRXaXDVIJEPA851HQsizM02LpqMHwMgPqhHOOTK0e4ry1kaY8iu4Z344zP+ogjz4/NHR708m4ZbnQ/XNwrLGw+Tr6kM7skvvge89mr6q4qxx2Z2pUZeARRHNfeoT8OMn4Au/DbNJ6hIhQLp4Irz8LZh2RGb7LFiTnfttSYdFBQhA//7FTJp0AnPnzuO5516gunork6ecRIcOjX9SVFdv5cnZz7B8+QpiMfjcmac3OuTv2LEDY8eN4fXFS3j4oUeZccUX6dChQ6M15s2bz4oVq8jNzeG44z6V0f211LotoWvXLgCsWLmKye+/T37+3p8GyWSS5559gYqKiHizGTp16sTo0aN4881S/vTAw3zh4s/vM/dk3bpy7r9vJrW1tZx/wXTGjh3z4Wt5eW3Izc2lrq6ODRsq6Na9a1bXlyRJkiRJkg62wjy4ZlJoJxXl3d3wrYfhF0/DuH7QuyNU7wqH6+u2RldENCjIC0HEzXP2DVI+KpmEZ0rhheUhSBjZO7SBWlEJSzc0DidSycuB607e++upY2BUbyitiH7f4nVw2i2hGmN0nzAkfs2W8H1GtdBqEI/Bv560txJjeM9wiP/gq9HvW7cVrrw/VD2M7RtCqSE94KIJ8OUT4dYX9g1HPiqZhFlvhOc2slfYNx4PFRRLykMrsnTyc+ErJ6W/rjniMSjIoJ3ZQ4tg1pLwGQ3rGX5/+UZYmubzatCuzYHd58Fw2AQgAJ85eRI7du5k4auvsWjRYhYvfp3i4r507tyZJEm2bN7Chg0bSSaTxOMxzjprGsOGDdlnnWnTTmNDeQVVVZu59ZbbOWLsaLp370ZNTQ0rV6xi/foNxGJw+tRT6dkzzbSeg7Buth119Hjmz/87m6u28D//fSdHjB1FUVERu3btYtlbb7N58xYGDOiflRkgAJ87cyoVFRtZu3Y9N9/0a8aMGUWPHt2pq6+jvHwDy5etoL6+npKSAYwZM7rRe2MxGDZsCKWly3jssdm8vWIlebl5TD3jVNq0yTvg9SVJkiRJkqRD4WunwN2vhKHi6VTtDBUSzdWxEI4bDMWd4fqT4QePpw9NauvDfJKoGSWpXHRMmP/RIC8HfjwdzvsNpMtqEklYvil8Ndexg+D8o/b+OhYL7Z2eKY0OMCA8j/Vbw1eDXz0L914OX50MP5yVfv89daHFWFSbsVRmHB/CrWyKx0L4tDCD492a2lAtElUxksqZ45r/noPtsApA4vEYZ589jaFDBjPn+blUVW5m7dr1rF27909WLAYlJQM57fQp9OnTu8l1CgoK+PLVM5g160neXFLKwldfa/R6586dmDr1VEaMHNas+2updbOtQ4ciLr3sYv7y8KNs2VLNy/P+9uFr+fn5nHPOmWzesiVrAUjbtoX8yzVXMGvWUyx9s5SFCxs/l7y8XCZMmMBpp59CPL5vX7Azz5rKtm3bKC+v4I3X3wRg7LgxlJQMyMr6kiRJkiRJ0sHWqRBuvRAuuiu0TMq2WAxumAKDuoVf3zAFnlwK81dlfy+A/l3CPIyPmz4OLpoIM//ZMvt2LISbPg+FH6tGGNMHvnMafPevmQ32/qitu0NlyIvfCBUe+xMOZGJwd/jPM6ElTiyvnxxmeuxPoJSJ0X2yX7nSEmLJZCaFUp9MlZuqqNq8mW3bthMjRlFRewYM7E9RUfuM19i+fQdla9ayffsO2uTn0a1bVwYOHEAsYkDHs888D8Cxx32K9u3bHdR1AV577XU2V22hX7/iAwpTEokEa9asZdOmSurq6ujcqRODhwyisLCAlStX887qNfTs2YOx4xq3jEp1n5nc/86dO1nzwXOJxWJ06tiRgSUDKCwsSHOvSVavfodNGyuJxWOMGjXiw8H22VhfkiRJkiRJOhT+4xH42dOZtbNqjunj4Y9XNR5qvmwjnHJz42qHbCgqgMevhZNSHFW+uxs+88v9q5CI0iYXfnMxXHF806+/Xwcz7g3zUvbHrRfC5BHw2ZvCTJZs6lgIT341VK80uG0uXDsz9XsmDIAF3818j7+vhs/9Grbs3P/7bErXdjD3GyFk+qQ7rAMQSZIkSZIkSTqc1Sfg3x+EX89tfqVCKqePDuFH57b7vrawDKb/JnshSFEB3D8jBC5RNmyDM27NXgjSJhd+fi58dUp0BcX2Grj0d2HYenNPwr83DX50FsxbAeffET1DpTk6FsIfr4QzPjZs/I6X4Jo/pH5fcwMQgCeWwGX3hNkx2dC1HTzyFThxaHbWa2nx9JdIkiRJkiRJklpCTjy0cPrJOWH494HIjcNVJ8CDVzcdfgAcPQCe+bdwmB7RrCYjJd3gievShx8AfTqGfacdEWZUHIhu7eHeL6UPPwA6FMDMq8IMlLyc5u3Tq0P474lDYc7XYHwWZnUM7g5P37Bv+NHwWtSz6b1vQ5y0ph0Bs6+HEb2a/96PG9UbXvj64RN+AOTceOONNx7qm5AkSZIkSZKk/6/iMThhCEwZCW9VhGqJ5lQrxGIwvCfcdjF86zQoyIu+vnt7uGgC5ObAkvIwCLs5CtvAlz4Nf7gyzILIVLt8uOBo6NURXlsHO2qat29uPBzoz7wKTh6e+eyMvBw4bTQc2T9UoGzOoBqia3u46YJQrQHQowguPiZ8Lm+Uh8HnzVGYB1dPgt9fET6rpvTsAI8sDkPvPy4nDj+ZDiObHnsdqbgzfGEi7N4DSyvCoPvmaJ8fZorcNwMGdGn+/oeSLbAkSZIkSZIk6ROiLgGzl8DtL8ErK0MLp1TatoEj+sKVJ8CFE0K1Q3OVVYfWSzP/CeXvpj4cz4mHEOCscXDNpAOvhtiyC+55Be6ZD6uqwryOpsSAzu3gsyPD0O0Th4R72V+79sCfX4W7XobF62HX+/te06Ud3HUpnHNk02usrIQ758GDr4ZnVpdo+rqceKgimT4+3HsmYdHCMjj3dlhbvff32uTC108J7bgO5HsHWLoh3PtfXoON21Lfe24O9O0I5x0F15wEQ3sc2L6HigGIJEmSJEmSJH0CbXgXFpRBaUX4/4aT3O5FoaXRhAEwqNuBt7KCEEAsKQ8H8KuqQrUAQH4uDOwGR/YLoUf7/APf66PqE2E4+4I18PamvYFPbg706wxji+Go/mH2RDYlk7BmS/h+SyvCfI9EEvp0gosnhueaTk1teGaL1sKKyr2VNPl5MLhbeF7j+zW/tdmm7fDAgrBm2zYhdDp+SOYVL5nYvQfeWB/ufVVVeO458fD5DukB44vDvaerJvqkMwCRJEmSJEmSJEmtjkPQJUmSJEmSJElSq2MAIkmSJEmSJEmSWh0DEEmSJEmSJEmS1OoYgEiSJEmSJEmSpFbHAESSJEmSJEmSJLU6BiCSJEmSJEmSJKnVMQCRJEmSJEmSJEmtjgGIJEmSJEmSJElqdQxAJEmSJEmSJElSq2MAIkmSJEmSJEmSWh0DEEmSJEmSJEmS1OoYgEiSJEmSJEmSpFbHAESSJEmSJEmSJLU6BiCSJEmSJEmSJKnVMQCRJEmSJEmSJEmtjgGIJEmSJEmSJElqdQxAJEmSJEmSJElSq2MAIkmSJEmSJEmSWh0DEEmSJEmSJEmS1OoYgEiSJEmSJEmSpFbHAESSJEmSJEmSJLU6BiCSJEmSJEmSJKnVMQCRJEmSJEmSJEmtjgGIJEmSJEmSJElqdf4PV76cLupYSAMAAAAASUVORK5CYII=;" vertex="1" parent="1">
          <mxGeometry x="170" y="225" width="246.67" height="185" as="geometry" />
        </mxCell>
        <mxCell id="NmlaGQNUU1KCurAq4Xw2-2" value="" style="verticalLabelPosition=bottom;shadow=0;dashed=0;align=center;html=1;verticalAlign=top;strokeWidth=1;shape=mxgraph.mockup.graphics.pieChart;strokeColor=#212e50;parts=10,20,35;partColors=#4D9DE0,#9D6E6C,#6CC551,#b0b0b0;strokeWidth=2;hachureGap=4;fontFamily=Architects Daughter;fontSource=https%3A%2F%2Ffonts.googleapis.com%2Fcss%3Ffamily%3DArchitects%2BDaughter;fillColor=default;" vertex="1" parent="1">
          <mxGeometry x="460" y="218" width="200" height="200" as="geometry" />
        </mxCell>
        <mxCell id="NmlaGQNUU1KCurAq4Xw2-3" value="" style="verticalLabelPosition=bottom;shadow=0;dashed=0;align=center;html=1;verticalAlign=top;strokeWidth=1;shape=mxgraph.mockup.graphics.lineChart;strokeColor=none;strokeColor2=#222E50;strokeColor3=#4D9DE0;strokeColor4=#6CC551;sketch=1;hachureGap=4;jiggle=2;curveFitting=1;fontFamily=Architects Daughter;fontSource=https%3A%2F%2Ffonts.googleapis.com%2Fcss%3Ffamily%3DArchitects%2BDaughter;" vertex="1" parent="1">
          <mxGeometry x="170" y="440" width="400" height="200" as="geometry" />
        </mxCell>
      </root>
    </mxGraphModel>
  </diagram>
</mxfile>
